<svg width="389" height="579" fill="none" xmlns="http://www.w3.org/2000/svg"><g opacity=".1" filter="url(#filter0_d)"><path d="M223.897 164.989a4.507 4.507 0 012.896 4.086l2.13 83.643a4.483 4.483 0 01-2.724 4.226 4.47 4.47 0 01-4.942-.962l-9.433-9.542-9.288 24.609c-5.353 14.194-4.863 29.615 1.389 43.446 3.757 8.311 9.486 15.239 16.4 20.762l41.727-110.551-13.361.933a4.482 4.482 0 01-4.356-2.538 4.492 4.492 0 01.762-4.972l56.854-61.392a4.452 4.452 0 014.867-1.14 4.462 4.462 0 012.899 4.071l2.12 83.647a4.499 4.499 0 01-2.717 4.24 4.501 4.501 0 01-4.947-.975l-9.427-9.537-41.705 110.516c23.887 1.088 46.867-12.847 55.766-36.406l9.286-24.611-13.359.936a4.491 4.491 0 01-4.356-2.544 4.483 4.483 0 01.759-4.97l56.848-61.382a4.505 4.505 0 014.874-1.152 4.497 4.497 0 012.893 4.083l2.132 83.647a4.479 4.479 0 01-2.722 4.225 4.472 4.472 0 01-4.94-.961l-9.434-9.542-9.288 24.608c-15.745 41.724-58.839 65.261-101.262 57.998l-68.213 180.761c-3.406 9.032-13.484 13.587-22.513 10.177a17.413 17.413 0 01-9.754-9.148 17.408 17.408 0 01-.424-13.367l68.212-180.76a91.581 91.581 0 01-35.424-40.279c-9.677-21.407-11.205-46.497-2.276-70.16l9.287-24.609-13.361.931a4.484 4.484 0 01-4.355-2.536 4.489 4.489 0 01.759-4.977l56.85-61.377a4.503 4.503 0 014.871-1.155z" fill="#fff"/></g><path d="M245.328 44.384c0 2.33-.521 3.496-2.955 3.496h-1.217V22.595h1.217c2.434 0 2.955 1.224 2.955 3.496v18.293zm-11.994-29.42V55.51h10.082c4.114 0 7.533-1.398 8.982-6 .811-2.505.811-7.69.811-14.332 0-6.7 0-12.234-.695-14.74-1.101-3.96-3.825-5.476-8.576-5.476h-10.604zm48.053 40.547V47.88h-10.604v-9.147h9.271v-7.632h-9.271v-8.564h10.604v-7.574h-18.484v40.548h18.484zm24.659-7.923l1.565-4.719 1.912-6.292h.232v18.934h7.88V14.963h-7.359l-3.94 10.662-2.782 8.214h-.347l-2.724-8.04-3.998-10.836h-7.359v40.548h7.823V36.403h.289l1.855 6 1.68 5.185h5.273zm33.147-1.631c0 1.864-1.043 2.505-2.318 2.505-1.275 0-2.376-.64-2.376-2.505v-21.44c0-1.747 1.101-2.504 2.376-2.504s2.318.757 2.318 2.505v21.44zm7.996-21.148c0-6.933-3.303-10.195-10.314-10.195-6.374 0-10.256 3.262-10.256 10.195v20.799c0 6.932 3.476 10.253 10.256 10.253 6.722 0 10.314-3.32 10.314-10.253V24.809zM250.833 89.34c0 1.71-.154 3.263-.463 4.661-.309 1.36-.831 2.525-1.565 3.496-.734.97-1.7 1.728-2.897 2.272-1.198.544-2.666.815-4.404.815-1.623 0-3.013-.233-4.172-.699-1.159-.466-2.125-1.087-2.897-1.864a8.436 8.436 0 01-1.681-2.855c-.347-1.087-.521-2.272-.521-3.553l3.592-.758c0 .816.097 1.612.29 2.389.193.738.502 1.398.927 1.98a5.137 5.137 0 001.739 1.399c.733.35 1.641.524 2.723.524 1.313 0 2.337-.213 3.071-.64.773-.428 1.352-.991 1.738-1.69.387-.7.638-1.515.754-2.447a24.09 24.09 0 00.174-2.971c0-1.282-.058-2.33-.174-3.146-.116-.855-.387-1.573-.812-2.156-.424-.621-1.043-1.184-1.854-1.69-.772-.504-1.835-1.048-3.187-1.63-1.931-.855-3.477-1.69-4.635-2.506-1.121-.815-1.99-1.65-2.608-2.505a7.976 7.976 0 01-1.159-2.796 17.382 17.382 0 01-.29-3.263c0-1.514.174-2.913.522-4.194.386-1.282.966-2.37 1.738-3.263a7.694 7.694 0 012.898-2.156c1.158-.543 2.53-.815 4.114-.815 1.738 0 3.187.272 4.346.815 1.158.505 2.086 1.185 2.781 2.04a7.419 7.419 0 011.449 2.854c.309 1.01.463 2 .463 2.972l-3.592.873c0-1.825-.425-3.301-1.275-4.427-.811-1.166-2.26-1.748-4.346-1.748-1.159 0-2.106.233-2.839.699a5.004 5.004 0 00-1.681 1.69 6.878 6.878 0 00-.811 2.213 16.956 16.956 0 00-.174 2.389c0 .893.077 1.69.232 2.389.154.699.463 1.359.927 1.98.502.622 1.217 1.224 2.144 1.806.927.583 2.183 1.204 3.766 1.865 1.739.699 3.11 1.437 4.114 2.214 1.005.737 1.758 1.573 2.26 2.505.541.893.889 1.903 1.043 3.03.155 1.126.232 2.427.232 3.903zm8.677 10.837V59.628h3.535v37.286h12.516v3.263H259.51zm41.252-10.021c0 3.418-.772 6.02-2.318 7.807-1.506 1.748-3.805 2.621-6.895 2.621-3.091 0-5.389-.835-6.896-2.505-1.468-1.67-2.202-4-2.202-6.99V69.765c0-1.438.155-2.797.464-4.079.309-1.281.811-2.388 1.507-3.32.734-.971 1.68-1.729 2.839-2.273 1.197-.543 2.646-.815 4.346-.815 1.738 0 3.187.252 4.346.757 1.197.466 2.144 1.166 2.839 2.098.695.893 1.198 1.98 1.507 3.262.309 1.243.463 2.641.463 4.195v20.565zm-3.592-21.09c0-.854-.097-1.67-.29-2.447a5.787 5.787 0 00-.927-2.038c-.425-.622-1.005-1.107-1.739-1.457-.695-.388-1.564-.583-2.607-.583-1.12 0-2.048.253-2.782.758a5.17 5.17 0 00-1.738 1.806 8.44 8.44 0 00-.927 2.447c-.155.854-.232 1.67-.232 2.447v21.148c0 .776.097 1.534.29 2.272.232.738.56 1.398.985 1.98a5.143 5.143 0 001.738 1.399c.734.35 1.604.524 2.608.524 2.047 0 3.496-.66 4.346-1.98.85-1.321 1.275-2.914 1.275-4.778V69.066zm21.102-6.175v37.286h-3.65V62.891h-7.244v-3.262h18.137v3.262h-7.243zm31.772 26.449c0 1.71-.154 3.263-.463 4.661-.309 1.36-.831 2.525-1.565 3.496-.734.97-1.699 1.728-2.897 2.272-1.198.544-2.665.815-4.404.815-1.622 0-3.013-.233-4.172-.699-1.159-.466-2.125-1.087-2.897-1.864a8.452 8.452 0 01-1.681-2.855c-.347-1.087-.521-2.272-.521-3.553l3.592-.758c0 .816.097 1.612.29 2.389.193.738.502 1.398.927 1.98a5.137 5.137 0 001.739 1.399c.734.35 1.642.524 2.723.524 1.314 0 2.337-.213 3.071-.64.773-.428 1.352-.991 1.739-1.69.386-.7.637-1.515.753-2.447a24.09 24.09 0 00.174-2.971c0-1.282-.058-2.33-.174-3.146-.116-.855-.386-1.573-.811-2.156-.425-.621-1.043-1.184-1.855-1.69-.772-.504-1.835-1.048-3.187-1.63-1.931-.855-3.476-1.69-4.635-2.506-1.12-.815-1.99-1.65-2.608-2.505a7.976 7.976 0 01-1.159-2.796 17.385 17.385 0 01-.289-3.263c0-1.514.173-2.913.521-4.194.386-1.282.966-2.37 1.738-3.263a7.694 7.694 0 012.898-2.156c1.159-.543 2.53-.815 4.114-.815 1.738 0 3.187.272 4.346.815 1.159.505 2.086 1.185 2.781 2.04a7.405 7.405 0 011.449 2.854c.309 1.01.463 2 .463 2.972l-3.592.873c0-1.825-.425-3.301-1.275-4.427-.811-1.166-2.26-1.748-4.346-1.748-1.159 0-2.105.233-2.839.699a5.004 5.004 0 00-1.681 1.69 6.901 6.901 0 00-.811 2.213 16.956 16.956 0 00-.174 2.389c0 .893.077 1.69.232 2.389.155.699.464 1.359.927 1.98.502.622 1.217 1.224 2.144 1.806.927.583 2.183 1.204 3.767 1.865 1.738.699 3.109 1.437 4.114 2.214 1.004.737 1.757 1.573 2.26 2.505.54.893.888 1.903 1.043 3.03.154 1.126.231 2.427.231 3.903z" fill="#fff"/><g filter="url(#filter1_d)"><path d="M178.344 20.023c.385.003.73.238.875.596l6.593 16.416a.947.947 0 01-1.278 1.212l-2.573-1.195-.025 5.562a11.928 11.928 0 003.48 8.506c1.358 1.37 3.004 2.32 4.782 2.904l.112-24.984-2.579 1.17a.947.947 0 01-1.266-1.222l6.736-16.359a.942.942 0 01.88-.585c.386 0 .731.235.875.593l6.591 16.418a.952.952 0 01-.225 1.04.952.952 0 01-1.052.172l-2.572-1.194-.11 24.975c4.813-1.547 8.338-6.003 8.364-11.328l.024-5.561-2.578 1.17a.947.947 0 01-1.267-1.224l6.736-16.355a.952.952 0 01.88-.588.95.95 0 01.875.595l6.593 16.417a.948.948 0 01-1.277 1.212l-2.574-1.194-.024 5.56c-.042 9.43-6.844 17.273-15.786 18.963l-.181 40.849a3.692 3.692 0 01-6.318 2.585 3.689 3.689 0 01-1.07-2.618l.181-40.848a19.364 19.364 0 01-9.991-5.368 19.342 19.342 0 01-5.627-13.734l.025-5.562-2.579 1.17a.948.948 0 01-1.267-1.222l6.737-16.356a.951.951 0 01.88-.588z" fill="#fff"/></g><defs><filter id="filter0_d" x="0" y="116" width="467.205" height="467.2" filterUnits="userSpaceOnUse" color-interpolation-filters="sRGB"><feFlood flood-opacity="0" result="BackgroundImageFix"/><feColorMatrix in="SourceAlpha" values="0 0 0 0 0 0 0 0 0 0 0 0 0 0 0 0 0 0 127 0"/><feOffset/><feGaussianBlur stdDeviation="2"/><feColorMatrix values="0 0 0 0 0.270588 0 0 0 0 0.45098 0 0 0 0 0.87451 0 0 0 1 0"/><feBlend in2="BackgroundImageFix" result="effect1_dropShadow"/><feBlend in="SourceGraphic" in2="effect1_dropShadow" result="shape"/></filter><filter id="filter1_d" x="138" y="0" width="111.773" height="111.773" filterUnits="userSpaceOnUse" color-interpolation-filters="sRGB"><feFlood flood-opacity="0" result="BackgroundImageFix"/><feColorMatrix in="SourceAlpha" values="0 0 0 0 0 0 0 0 0 0 0 0 0 0 0 0 0 0 127 0"/><feOffset/><feGaussianBlur stdDeviation="2"/><feColorMatrix values="0 0 0 0 0.270588 0 0 0 0 0.45098 0 0 0 0 0.87451 0 0 0 1 0"/><feBlend in2="BackgroundImageFix" result="effect1_dropShadow"/><feBlend in="SourceGraphic" in2="effect1_dropShadow" result="shape"/></filter></defs></svg>