<svg width="32" height="32" fill="none" xmlns="http://www.w3.org/2000/svg"><path d="M10.972 5.122c.116.001.22.072.264.18l1.99 4.956a.286.286 0 01-.386.366l-.777-.36-.007 1.678a3.602 3.602 0 001.05 2.568c.41.413.907.7 1.444.876l.034-7.542-.779.354a.286.286 0 01-.382-.37l2.034-4.938a.284.284 0 01.265-.176c.117 0 .22.07.264.179l1.99 4.956a.287.287 0 01-.068.314.287.287 0 01-.318.052l-.776-.36-.033 7.539c1.453-.467 2.517-1.813 2.525-3.42l.007-1.679-.778.354a.287.287 0 01-.383-.37l2.034-4.937a.288.288 0 01.265-.178c.117.001.22.072.264.18l1.99 4.956a.286.286 0 01-.385.366l-.777-.36-.007 1.678a5.862 5.862 0 01-4.766 5.724l-.054 12.332a1.115 1.115 0 11-2.23-.01l.054-12.332a5.845 5.845 0 01-3.016-1.62 5.837 5.837 0 01-1.698-4.146l.007-1.679-.778.353a.286.286 0 01-.383-.369L10.706 5.3a.287.287 0 01.266-.178z" fill="#fff"/></svg>