<svg width="19" height="14" fill="none" xmlns="http://www.w3.org/2000/svg"><path fill-rule="evenodd" clip-rule="evenodd" d="M9.082 11.862c-1.567-.045-2.957-.64-4.237-1.48-1.28-.838-2.34-1.92-3.289-3.11-.132-.155-.132-.266 0-.42C2.395 5.837 3.3 4.91 4.337 4.137l-.905-.904C2.196 4.18 1.137 5.306.188 6.587c-.265.353-.243.618.022.993 1.324 1.788 2.891 3.288 4.833 4.392 1.258.706 2.604 1.125 4.06 1.148a8.093 8.093 0 003.377-.817l-.97-.971a6.385 6.385 0 01-2.428.53zm9.388-5.24c-1.323-1.81-2.912-3.333-4.877-4.414-1.191-.662-2.45-1.082-3.818-1.126-1.17-.044-2.273.221-3.31.684l.971.971a6.515 6.515 0 012.052-.397c1.038-.022 2.009.265 2.958.706 1.61.75 2.913 1.876 4.105 3.178.22.243.397.486.618.729.088.11.11.198.022.33a16.017 16.017 0 01-2.582 2.605l.904.905a16.713 16.713 0 002.98-3.134c.265-.42.265-.64-.022-1.037z" fill="#95959C"/><path fill-rule="evenodd" clip-rule="evenodd" d="M11.489 6.212l1.148 1.147c.066-.286.11-.573.11-.86 0-1.788-1.457-3.244-3.244-3.266a2.95 2.95 0 00-.883.132l1.17 1.17c.882.11 1.567.816 1.699 1.677zm-5.881-.825c-.154.376-.22.75-.22 1.17.044 1.81 1.5 3.266 3.266 3.244.419 0 .794-.088 1.17-.22L8.785 8.543h-.154c-1.104 0-1.987-.904-1.987-2.03v-.088L5.608 5.387zM3.287.199A.588.588 0 002.846 0c-.265 0-.53.199-.64.441-.067.133-.11.398.154.662l12.602 12.602a.588.588 0 00.441.199c.265 0 .53-.199.64-.442.066-.132.11-.397-.154-.662L3.287.2z" fill="#95959C"/></svg>