<svg width="488" height="636" fill="none" xmlns="http://www.w3.org/2000/svg"><g opacity=".1" filter="url(#filter0_d)"><path d="M233.475 198.948a4.702 4.702 0 013.021 4.265l2.223 87.286a4.677 4.677 0 01-2.842 4.41 4.663 4.663 0 01-5.157-1.005l-9.844-9.957-9.693 25.681c-5.586 14.812-5.074 30.905 1.45 45.338 3.921 8.673 9.899 15.902 17.114 21.666l43.545-115.366-13.943.974a4.677 4.677 0 01-4.546-2.648 4.688 4.688 0 01.795-5.189l59.33-64.066a4.646 4.646 0 015.079-1.19 4.66 4.66 0 013.026 4.248l2.212 87.291a4.694 4.694 0 01-2.835 4.424 4.698 4.698 0 01-5.163-1.017l-9.837-9.952-43.522 115.329c24.927 1.135 48.908-13.407 58.195-37.992l9.69-25.682-13.94.977a4.693 4.693 0 01-4.547-2.655 4.679 4.679 0 01.793-5.187l59.323-64.056a4.704 4.704 0 015.087-1.202 4.693 4.693 0 013.019 4.261l2.225 87.29a4.674 4.674 0 01-2.841 4.41 4.667 4.667 0 01-5.155-1.004l-9.845-9.957-9.692 25.68c-16.431 43.54-61.402 68.103-105.673 60.524l-71.183 188.634c-3.555 9.425-14.072 14.178-23.494 10.62a18.168 18.168 0 01-10.179-9.547 18.168 18.168 0 01-.442-13.949l71.182-188.633a95.576 95.576 0 01-36.966-42.033c-10.099-22.34-11.694-48.522-2.376-73.216l9.692-25.681-13.943.972a4.68 4.68 0 01-4.545-2.646 4.688 4.688 0 01.792-5.194l59.326-64.05a4.701 4.701 0 015.084-1.206z" fill="#fff"/></g><path d="M298.431 35.044c0 1.792-.401 2.687-2.271 2.687h-.936V18.294h.936c1.87 0 2.271.941 2.271 2.688v14.062zm-9.22-22.616v31.17h7.75c3.163 0 5.791-1.075 6.905-4.613.623-1.925.623-5.911.623-11.017 0-5.15 0-9.405-.534-11.33-.847-3.046-2.94-4.21-6.593-4.21h-8.151zm36.94 31.17v-5.867h-8.152V30.7h7.127v-5.867h-7.127V18.25h8.152v-5.822h-14.21v31.17h14.21zm18.956-6.091l1.202-3.627 1.47-4.837h.178v14.555h6.058v-31.17h-5.657l-3.029 8.195-2.138 6.315h-.267l-2.094-6.18-3.073-8.33H332.1v31.17h6.013v-14.69h.223l1.425 4.613 1.292 3.986h4.054zm25.48-1.254c0 1.433-.801 1.926-1.781 1.926-.98 0-1.827-.493-1.827-1.926v-16.48c0-1.344.847-1.926 1.827-1.926s1.781.582 1.781 1.925v16.481zm6.147-16.257c0-5.33-2.539-7.837-7.928-7.837-4.9 0-7.885 2.508-7.885 7.837v15.989c0 5.329 2.673 7.882 7.885 7.882 5.167 0 7.928-2.553 7.928-7.882V19.996zm-74.071 49.607c0 1.314-.119 2.508-.356 3.583-.238 1.045-.639 1.94-1.203 2.687-.564.747-1.307 1.329-2.227 1.747-.921.418-2.049.627-3.386.627-1.247 0-2.316-.18-3.207-.538-.891-.358-1.633-.836-2.227-1.433a6.493 6.493 0 01-1.292-2.194 8.936 8.936 0 01-.401-2.732l2.762-.582c0 .627.074 1.239.223 1.836.148.567.386 1.075.713 1.523a3.94 3.94 0 001.336 1.074c.564.27 1.262.404 2.093.404 1.01 0 1.797-.165 2.361-.493.594-.329 1.04-.761 1.337-1.299.297-.537.49-1.164.579-1.88.089-.717.133-1.479.133-2.285 0-.985-.044-1.791-.133-2.418-.089-.657-.297-1.21-.624-1.657-.327-.478-.802-.911-1.425-1.3-.594-.387-1.411-.805-2.45-1.253-1.485-.657-2.673-1.299-3.564-1.926-.861-.627-1.529-1.269-2.004-1.926a6.108 6.108 0 01-.891-2.15 13.309 13.309 0 01-.223-2.507c0-1.165.134-2.24.401-3.225.297-.985.742-1.821 1.336-2.508a5.913 5.913 0 012.228-1.657c.89-.418 1.945-.627 3.162-.627 1.336 0 2.45.21 3.341.627.891.388 1.604.91 2.138 1.568a5.69 5.69 0 011.114 2.194c.237.776.356 1.538.356 2.284l-2.762.672c0-1.403-.326-2.538-.98-3.404-.623-.895-1.737-1.343-3.34-1.343-.891 0-1.619.179-2.183.537a3.85 3.85 0 00-1.292 1.299 5.296 5.296 0 00-.624 1.702 13.056 13.056 0 00-.133 1.836c0 .687.059 1.299.178 1.836.119.538.356 1.045.713 1.523.386.477.935.94 1.648 1.388.713.448 1.678.926 2.895 1.433 1.337.538 2.391 1.105 3.163 1.702.772.567 1.351 1.21 1.737 1.926.416.687.683 1.463.802 2.329.119.866.178 1.866.178 3zm6.67 8.33v-31.17h2.717v28.662h9.622v2.508h-12.339zm31.712-7.703c0 2.628-.594 4.628-1.782 6.001-1.158 1.344-2.925 2.016-5.301 2.016-2.375 0-4.142-.642-5.3-1.926-1.129-1.284-1.693-3.075-1.693-5.374V54.555c0-1.104.119-2.15.356-3.135.238-.985.624-1.836 1.158-2.552a5.748 5.748 0 012.183-1.747c.921-.418 2.034-.627 3.341-.627 1.336 0 2.45.194 3.341.582.92.359 1.648.896 2.182 1.613.535.686.921 1.522 1.158 2.508.238.955.357 2.03.357 3.224v15.81zm-2.762-16.212c0-.657-.074-1.284-.223-1.88a4.454 4.454 0 00-.712-1.568 3.296 3.296 0 00-1.337-1.12c-.534-.299-1.202-.448-2.004-.448-.861 0-1.574.194-2.138.582a3.972 3.972 0 00-1.337 1.389 6.497 6.497 0 00-.712 1.88 10.561 10.561 0 00-.179 1.882v16.257c0 .597.075 1.179.223 1.746.178.567.431 1.075.757 1.523.357.448.802.806 1.337 1.075.564.269 1.232.403 2.004.403 1.574 0 2.688-.508 3.341-1.523s.98-2.24.98-3.672V54.018zm16.222-4.748v28.663h-2.806V49.271h-5.568v-2.508h13.942v2.508h-5.568zm24.424 20.333c0 1.314-.119 2.508-.356 3.583-.238 1.045-.639 1.94-1.203 2.687-.564.747-1.306 1.329-2.227 1.747-.921.418-2.049.627-3.385.627-1.248 0-2.317-.18-3.208-.538-.89-.358-1.633-.836-2.227-1.433a6.493 6.493 0 01-1.292-2.194c-.267-.836-.4-1.747-.4-2.732l2.761-.582c0 .627.075 1.239.223 1.836.149.567.386 1.075.713 1.523a3.95 3.95 0 001.336 1.074c.564.27 1.262.404 2.094.404 1.009 0 1.796-.165 2.36-.493.594-.329 1.04-.761 1.337-1.299.297-.537.49-1.164.579-1.88.089-.717.134-1.479.134-2.285 0-.985-.045-1.791-.134-2.418-.089-.657-.297-1.21-.624-1.657-.326-.478-.802-.911-1.425-1.3-.594-.387-1.411-.805-2.45-1.253-1.485-.657-2.673-1.299-3.564-1.926-.861-.627-1.529-1.269-2.004-1.926a6.108 6.108 0 01-.891-2.15 13.392 13.392 0 01-.223-2.507c0-1.165.134-2.24.401-3.225.297-.985.743-1.821 1.337-2.508a5.901 5.901 0 012.227-1.657c.891-.418 1.945-.627 3.162-.627 1.337 0 2.45.21 3.341.627.891.388 1.604.91 2.138 1.568a5.69 5.69 0 011.114 2.194c.237.776.356 1.538.356 2.284l-2.761.672c0-1.403-.327-2.538-.98-3.404-.624-.895-1.738-1.343-3.341-1.343-.891 0-1.619.179-2.183.537a3.86 3.86 0 00-1.292 1.299 5.272 5.272 0 00-.623 1.702 13.06 13.06 0 00-.134 1.836c0 .687.059 1.299.178 1.836a3.97 3.97 0 00.713 1.523c.386.477.935.94 1.648 1.388.713.448 1.678.926 2.895 1.433 1.337.538 2.391 1.105 3.163 1.702.772.567 1.351 1.21 1.737 1.926.416.687.683 1.463.802 2.329.119.866.178 1.866.178 3z" fill="#fff"/><g filter="url(#filter1_d)"><path d="M246.939 16.317a.731.731 0 01.672.458l5.069 12.62a.73.73 0 01-.983.932l-1.978-.919-.019 4.275a9.17 9.17 0 002.675 6.54c1.044 1.052 2.309 1.782 3.676 2.232l.086-19.206-1.982.9a.73.73 0 01-.808-.14.731.731 0 01-.166-.8l5.179-12.576a.724.724 0 01.676-.45c.297 0 .562.181.673.456l5.067 12.621a.732.732 0 01-.174.8.732.732 0 01-.809.132l-1.976-.918-.085 19.199c3.7-1.189 6.41-4.615 6.429-8.708l.019-4.275-1.982.9a.731.731 0 01-.808-.14.73.73 0 01-.166-.8l5.178-12.574a.733.733 0 01.677-.452.732.732 0 01.673.458l5.068 12.62a.727.727 0 01-.982.932l-1.978-.919-.019 4.275c-.032 7.248-5.261 13.278-12.135 14.577l-.139 31.402a2.838 2.838 0 01-4.857 1.987 2.83 2.83 0 01-.822-2.012l.139-31.402a14.89 14.89 0 01-7.681-4.126 14.864 14.864 0 01-4.325-10.558l.019-4.275-1.982.9a.73.73 0 01-.808-.14.73.73 0 01-.166-.8l5.178-12.574a.733.733 0 01.677-.452z" fill="#fff"/></g><defs><filter id="filter0_d" x="0" y="148" width="487.205" height="487.2" filterUnits="userSpaceOnUse" color-interpolation-filters="sRGB"><feFlood flood-opacity="0" result="BackgroundImageFix"/><feColorMatrix in="SourceAlpha" values="0 0 0 0 0 0 0 0 0 0 0 0 0 0 0 0 0 0 127 0"/><feOffset/><feGaussianBlur stdDeviation="2"/><feColorMatrix values="0 0 0 0 0.270588 0 0 0 0 0.45098 0 0 0 0 0.87451 0 0 0 1 0"/><feBlend in2="BackgroundImageFix" result="effect1_dropShadow"/><feBlend in="SourceGraphic" in2="effect1_dropShadow" result="shape"/></filter><filter id="filter1_d" x="215" y="0" width="87.773" height="87.773" filterUnits="userSpaceOnUse" color-interpolation-filters="sRGB"><feFlood flood-opacity="0" result="BackgroundImageFix"/><feColorMatrix in="SourceAlpha" values="0 0 0 0 0 0 0 0 0 0 0 0 0 0 0 0 0 0 127 0"/><feOffset/><feGaussianBlur stdDeviation="2"/><feColorMatrix values="0 0 0 0 0.270588 0 0 0 0 0.45098 0 0 0 0 0.87451 0 0 0 1 0"/><feBlend in2="BackgroundImageFix" result="effect1_dropShadow"/><feBlend in="SourceGraphic" in2="effect1_dropShadow" result="shape"/></filter></defs></svg>