<svg width="17" height="17" fill="none" xmlns="http://www.w3.org/2000/svg"><path d="M16.953 4.998c-.04-.903-.185-1.524-.395-2.062a4.148 4.148 0 00-.983-1.508 4.184 4.184 0 00-1.504-.98C13.53.24 12.91.093 12.009.053 11.099.01 10.809 0 8.502 0 6.194 0 5.905.01 4.998.05c-.903.04-1.524.186-2.062.395a4.148 4.148 0 00-1.508.983 4.19 4.19 0 00-.98 1.504c-.209.542-.355 1.16-.395 2.063C.01 5.905 0 6.194 0 8.502s.01 2.597.05 3.503c.04.903.186 1.524.395 2.063.216.57.551 1.082.983 1.507.425.432.94.768 1.504.98.542.21 1.16.355 2.063.395.906.04 1.195.05 3.503.05 2.309 0 2.597-.01 3.504-.05.903-.04 1.524-.186 2.062-.395a4.348 4.348 0 002.488-2.487c.209-.542.355-1.16.395-2.063.04-.906.05-1.195.05-3.503s-.004-2.597-.044-3.504zm-1.53 6.94c-.037.831-.176 1.28-.293 1.578a2.82 2.82 0 01-1.614 1.614c-.299.117-.75.256-1.577.292-.897.04-1.166.05-3.434.05-2.268 0-2.54-.01-3.434-.05-.83-.036-1.278-.175-1.577-.292a2.617 2.617 0 01-.977-.634 2.644 2.644 0 01-.634-.976c-.116-.3-.256-.75-.292-1.578-.04-.896-.05-1.165-.05-3.434 0-2.268.01-2.54.05-3.434.036-.83.176-1.278.292-1.577a2.57 2.57 0 01.638-.976c.275-.283.607-.499.976-.635.299-.116.75-.255 1.577-.292.897-.04 1.166-.05 3.434-.05 2.272 0 2.54.01 3.434.05.83.037 1.279.176 1.578.292.368.136.704.352.976.635.282.275.498.607.634.976.117.299.256.75.293 1.577.04.897.05 1.166.05 3.434 0 2.269-.01 2.534-.05 3.43z" fill="#fff"/><path d="M8.502 4.135a4.368 4.368 0 000 8.734 4.368 4.368 0 000-8.734zm0 7.2a2.833 2.833 0 110-5.667 2.833 2.833 0 010 5.667zm5.559-7.373a1.02 1.02 0 11-2.04 0 1.02 1.02 0 012.04 0z" fill="#fff"/></svg>