<svg width="113" height="63" fill="none" xmlns="http://www.w3.org/2000/svg"><path d="M57.77 25.27c0 1.2-.27 1.8-1.53 1.8h-.63V14.05h.63c1.26 0 1.53.63 1.53 1.8v9.42zm-6.21-15.15V31h5.22c2.13 0 3.9-.72 4.65-3.09.42-1.29.42-3.96.42-7.38 0-3.45 0-6.3-.36-7.59-.57-2.04-1.98-2.82-4.44-2.82h-5.49zM76.44 31v-3.93h-5.49v-4.71h4.8v-3.93h-4.8v-4.41h5.49v-3.9h-9.57V31h9.57zm12.766-4.08l.81-2.43.99-3.24h.12V31h4.08V10.12h-3.81l-2.04 5.49-1.44 4.23h-.18l-1.41-4.14-2.07-5.58h-3.81V31h4.05v-9.84h.15l.96 3.09.87 2.67h2.73zm17.161-.84c0 .96-.54 1.29-1.2 1.29-.66 0-1.23-.33-1.23-1.29V15.04c0-.9.57-1.29 1.23-1.29s1.2.39 1.2 1.29v11.04zm4.14-10.89c0-3.57-1.71-5.25-5.34-5.25-3.3 0-5.31 1.68-5.31 5.25V25.9c0 3.57 1.8 5.28 5.31 5.28 3.48 0 5.34-1.71 5.34-5.28V15.19zM60.62 48.42c0 .88-.08 1.68-.24 2.4-.16.7-.43 1.3-.81 1.8-.38.5-.88.89-1.5 1.17-.62.28-1.38.42-2.28.42-.84 0-1.56-.12-2.16-.36-.6-.24-1.1-.56-1.5-.96-.38-.42-.67-.91-.87-1.47-.18-.56-.27-1.17-.27-1.83l1.86-.39c0 .42.05.83.15 1.23.1.38.26.72.48 1.02.24.3.54.54.9.72.38.18.85.27 1.41.27.68 0 1.21-.11 1.59-.33.4-.22.7-.51.9-.87.2-.36.33-.78.39-1.26s.09-.99.09-1.53c0-.66-.03-1.2-.09-1.62-.06-.44-.2-.81-.42-1.11-.22-.32-.54-.61-.96-.87-.4-.26-.95-.54-1.65-.84-1-.44-1.8-.87-2.4-1.29-.58-.42-1.03-.85-1.35-1.29-.3-.46-.5-.94-.6-1.44-.1-.52-.15-1.08-.15-1.68 0-.78.09-1.5.27-2.16.2-.66.5-1.22.9-1.68.4-.48.9-.85 1.5-1.11.6-.28 1.31-.42 2.13-.42.9 0 1.65.14 2.25.42.6.26 1.08.61 1.44 1.05.36.44.61.93.75 1.47.16.52.24 1.03.24 1.53l-1.86.45c0-.94-.22-1.7-.66-2.28-.42-.6-1.17-.9-2.25-.9-.6 0-1.09.12-1.47.36-.36.22-.65.51-.87.87-.2.34-.34.72-.42 1.14-.06.42-.09.83-.09 1.23 0 .46.04.87.12 1.23.08.36.24.7.48 1.02.26.32.63.63 1.11.93.48.3 1.13.62 1.95.96.9.36 1.61.74 2.13 1.14.52.38.91.81 1.17 1.29.28.46.46.98.54 1.56.08.58.12 1.25.12 2.01zM65.112 54V33.12h1.83v19.2h6.48V54h-8.31zm21.358-5.16c0 1.76-.4 3.1-1.2 4.02-.78.9-1.97 1.35-3.57 1.35-1.6 0-2.79-.43-3.57-1.29-.76-.86-1.14-2.06-1.14-3.6V38.34c0-.74.08-1.44.24-2.1.16-.66.42-1.23.78-1.71.38-.5.87-.89 1.47-1.17.62-.28 1.37-.42 2.25-.42.9 0 1.65.13 2.25.39.62.24 1.11.6 1.47 1.08.36.46.62 1.02.78 1.68.16.64.24 1.36.24 2.16v10.59zm-1.86-10.86c0-.44-.05-.86-.15-1.26-.1-.4-.26-.75-.48-1.05-.22-.32-.52-.57-.9-.75-.36-.2-.81-.3-1.35-.3-.58 0-1.06.13-1.44.39-.38.24-.68.55-.9.93-.22.38-.38.8-.48 1.26-.08.44-.12.86-.12 1.26v10.89c0 .4.05.79.15 1.17.12.38.29.72.51 1.02.24.3.54.54.9.72.38.18.83.27 1.35.27 1.06 0 1.81-.34 2.25-1.02.44-.68.66-1.5.66-2.46V37.98zm10.925-3.18V54h-1.89V34.8h-3.75v-1.68h9.39v1.68h-3.75zm16.45 13.62c0 .88-.08 1.68-.24 2.4-.16.7-.43 1.3-.81 1.8-.38.5-.88.89-1.5 1.17-.62.28-1.38.42-2.28.42-.84 0-1.56-.12-2.16-.36-.6-.24-1.1-.56-1.5-.96-.38-.42-.67-.91-.87-1.47-.18-.56-.27-1.17-.27-1.83l1.86-.39c0 .42.05.83.15 1.23.1.38.26.72.48 1.02.24.3.54.54.9.72.38.18.85.27 1.41.27.68 0 1.21-.11 1.59-.33.4-.22.7-.51.9-.87.2-.36.33-.78.39-1.26s.09-.99.09-1.53c0-.66-.03-1.2-.09-1.62-.06-.44-.2-.81-.42-1.11-.22-.32-.54-.61-.96-.87-.4-.26-.95-.54-1.65-.84-1-.44-1.8-.87-2.4-1.29-.58-.42-1.03-.85-1.35-1.29-.3-.46-.5-.94-.6-1.44-.1-.52-.15-1.08-.15-1.68 0-.78.09-1.5.27-2.16.2-.66.5-1.22.9-1.68.4-.48.9-.85 1.5-1.11.6-.28 1.31-.42 2.13-.42.9 0 1.65.14 2.25.42.6.26 1.08.61 1.44 1.05.36.44.61.93.75 1.47.16.52.24 1.03.24 1.53l-1.86.45c0-.94-.22-1.7-.66-2.28-.42-.6-1.17-.9-2.25-.9-.6 0-1.09.12-1.47.36-.36.22-.65.51-.87.87-.2.34-.34.72-.42 1.14-.06.42-.09.83-.09 1.23 0 .46.04.87.12 1.23.08.36.24.7.48 1.02.26.32.63.63 1.11.93.48.3 1.13.62 1.95.96.9.36 1.61.74 2.13 1.14.52.38.91.81 1.17 1.29.28.46.46.98.54 1.56.08.58.12 1.25.12 2.01z" fill="#fff"/><g filter="url(#filter0_d)"><path d="M23.187 12.657c.2.002.378.124.454.309l3.416 8.507a.491.491 0 01-.662.628l-1.334-.62-.013 2.882a6.181 6.181 0 001.804 4.408 6.165 6.165 0 002.477 1.505l.058-12.946-1.336.606a.491.491 0 01-.656-.633l3.49-8.477a.488.488 0 01.457-.303c.2 0 .378.121.453.307l3.416 8.507c.075.188.028.4-.117.54a.493.493 0 01-.546.088l-1.332-.618-.057 12.941c2.494-.801 4.32-3.11 4.334-5.87l.012-2.881-1.336.606a.493.493 0 01-.656-.634l3.49-8.475a.494.494 0 01.457-.305c.2.002.378.123.453.309l3.416 8.507a.49.49 0 01-.662.628l-1.333-.62-.013 2.882c-.022 4.886-3.546 8.95-8.18 9.826l-.093 21.167a1.913 1.913 0 11-3.829-.017l.094-21.167a10.034 10.034 0 01-5.177-2.781 10.02 10.02 0 01-2.916-7.117l.013-2.882-1.336.607a.491.491 0 01-.657-.634l3.491-8.475a.493.493 0 01.456-.305z" fill="#4573DF"/></g><defs><filter id="filter0_d" x=".354" y=".354" width="61.773" height="61.773" filterUnits="userSpaceOnUse" color-interpolation-filters="sRGB"><feFlood flood-opacity="0" result="BackgroundImageFix"/><feColorMatrix in="SourceAlpha" values="0 0 0 0 0 0 0 0 0 0 0 0 0 0 0 0 0 0 127 0"/><feOffset/><feGaussianBlur stdDeviation="2"/><feColorMatrix values="0 0 0 0 0.270588 0 0 0 0 0.45098 0 0 0 0 0.87451 0 0 0 1 0"/><feBlend in2="BackgroundImageFix" result="effect1_dropShadow"/><feBlend in="SourceGraphic" in2="effect1_dropShadow" result="shape"/></filter></defs></svg>