<svg width="62" height="62" fill="none" xmlns="http://www.w3.org/2000/svg"><path d="M16.348 29.305C7.334 29.305 0 36.638 0 45.652 0 54.666 7.334 62 16.348 62s16.347-7.334 16.347-16.348-7.333-16.347-16.347-16.347zm0 29.062c-7.011 0-12.715-5.704-12.715-12.715 0-7.01 5.704-12.715 12.715-12.715 7.01 0 12.715 5.704 12.715 12.715s-5.704 12.715-12.715 12.715zM11.504 25.43a1.816 1.816 0 001.816-1.817v-5.449h5.908l-.532.532a1.817 1.817 0 002.569 2.569l3.633-3.633c.709-.71.709-1.86 0-2.569l-3.633-3.633A1.816 1.816 0 1018.696 14l.532.531h-7.724a1.817 1.817 0 00-1.816 1.817v7.265c0 1.003.813 1.817 1.816 1.817zm38.992 11.14a1.816 1.816 0 00-1.816 1.817v5.449h-5.908l.532-.532a1.816 1.816 0 10-2.569-2.569l-3.633 3.633a1.817 1.817 0 000 2.569l3.633 3.633c.355.354.82.532 1.285.532a1.816 1.816 0 001.284-3.1l-.532-.533h7.724a1.816 1.816 0 001.816-1.817v-7.265a1.816 1.816 0 00-1.816-1.817zM45.652 0c-9.014 0-16.347 7.334-16.347 16.348s7.333 16.347 16.347 16.347C54.666 32.695 62 25.362 62 16.348 62 7.334 54.666 0 45.652 0zm0 21.797a5.455 5.455 0 01-5.449-5.45 5.455 5.455 0 015.45-5.449 5.456 5.456 0 015.449 5.45 5.455 5.455 0 01-5.45 5.449zm5.005-13.023a9.027 9.027 0 00-3.188-1.326V3.763a12.65 12.65 0 015.794 2.405l-2.606 2.606zm-6.821-1.326a9.032 9.032 0 00-3.188 1.326l-2.606-2.606a12.652 12.652 0 015.794-2.405v3.685zm-5.757 3.895a9.03 9.03 0 00-1.326 3.188h-3.685a12.651 12.651 0 012.405-5.794l2.606 2.606zm-1.326 6.821a9.033 9.033 0 001.326 3.188l-2.606 2.606a12.652 12.652 0 01-2.405-5.794h3.685zm3.895 5.757a9.027 9.027 0 003.188 1.326v3.685a12.65 12.65 0 01-5.794-2.405l2.605-2.606zm6.82 1.326a9.032 9.032 0 003.19-1.326l2.605 2.606a12.653 12.653 0 01-5.794 2.405v-3.685zm5.758-3.895a9.027 9.027 0 001.325-3.188h3.686a12.652 12.652 0 01-2.405 5.794l-2.606-2.606zm1.326-6.82a9.028 9.028 0 00-1.326-3.189l2.606-2.606a12.651 12.651 0 012.405 5.794h-3.685z" fill="#FFB525"/><path d="M18.116 44.435a46.374 46.374 0 01-.641-.232V40.29c.37.137.563.322.59.35a1.211 1.211 0 001.819-1.6c-.402-.461-1.233-1.04-2.409-1.243v-.621a1.21 1.21 0 10-2.422 0v.753c-.075.02-.15.041-.226.064-1.435.432-2.507 1.658-2.797 3.198-.266 1.413.192 2.78 1.197 3.569.474.372 1.053.713 1.826 1.067v5.115c-.547-.077-.957-.263-1.611-.691a1.21 1.21 0 10-1.326 2.027c1.15.751 1.96 1.015 2.937 1.1v.75a1.21 1.21 0 002.422 0v-.866c2.012-.51 3.302-2.23 3.587-3.924.366-2.18-.818-4.15-2.946-4.903zm-3.394-1.581c-.286-.224-.409-.701-.312-1.215.07-.372.274-.8.643-1.084v2.532a4.311 4.311 0 01-.331-.233zm3.951 6.082a2.502 2.502 0 01-1.198 1.737v-3.89c1.31.552 1.278 1.68 1.198 2.153z" fill="#FFB525"/></svg>