<svg width="72" height="72" fill="none" xmlns="http://www.w3.org/2000/svg"><path d="M70.838 8.642l-4.986-2.494-2.494-4.986c-.775-1.551-2.992-1.547-3.766 0l-2.48 4.959-5.217 2.441c-1.6.75-1.618 3.027-.029 3.8l5.238 2.55 2.488 4.976c.776 1.55 2.993 1.547 3.766 0l2.494-4.987 4.986-2.493c1.551-.775 1.547-2.993 0-3.766zm-7.497 2.807a2.105 2.105 0 00-.941.941l-.925 1.849-.924-1.849a2.105 2.105 0 00-.962-.951l-1.914-.932 1.885-.883c.43-.2.779-.54.991-.965l.924-1.848.925 1.848c.203.408.534.738.941.942l1.848.924-1.848.924zM19.888 59.452L14.9 56.958l-2.493-4.986c-.775-1.55-2.993-1.547-3.766 0l-2.494 4.986-4.986 2.494c-1.551.775-1.547 2.992 0 3.766l4.986 2.493 2.494 4.987c.775 1.55 2.992 1.547 3.766 0l2.493-4.987 4.987-2.493c1.55-.775 1.547-2.993 0-3.766zm-7.498 2.807a2.106 2.106 0 00-.941.941l-.924 1.849L9.6 63.2a2.105 2.105 0 00-.941-.941l-1.848-.924 1.848-.924c.407-.204.738-.535.941-.942l.925-1.848.924 1.848c.204.408.534.738.941.942l1.849.924-1.849.924zm49.06-33.262L42.862 10.41a6.275 6.275 0 00-4.466-1.85h-23.52a6.293 6.293 0 00-4.386 1.777c-.027.024-.055.047-.08.073-.026.025-.049.053-.073.08a6.294 6.294 0 00-1.778 4.386v23.488c0 1.69.701 3.35 1.91 4.525l19.168 18.66a6.284 6.284 0 004.407 1.792l22.95-.035c3.474-.006 6.306-2.843 6.306-6.316V33.462a6.274 6.274 0 00-1.85-4.465zM40.88 14.382L57.478 30.98l-8.422 3.488-11.665-11.665 3.489-8.421zm5.577 23.442v8.655l-8.141.012-12.913-12.57v-8.518h8.633l12.42 12.42zM36.99 12.77l-3.49 8.421h-9.33l-8.422-8.421H36.99zm-24.22 2.977l8.422 8.421v9.244l-8.421 3.554v-21.22zm18.78 41.787L14.408 40.846l8.421-3.554 12.139 11.816-3.42 8.426zm3.897 1.594l3.42-8.47 8.844.001 8.41 8.438-20.674.031zm23.643-3.016l-8.422-8.422v-9.332l8.422-3.488v21.242z" fill="#FFB525"/></svg>