<svg width="28" height="28" fill="none" xmlns="http://www.w3.org/2000/svg"><path d="M27.18 2.02h-3.593c.013-.397.02-.797.02-1.2a.82.82 0 00-.82-.82H5.212a.82.82 0 00-.82.82c0 .403.007.803.02 1.2H.82a.82.82 0 00-.82.821c0 3.676.96 7.144 2.705 9.765 1.724 2.591 4.02 4.078 6.502 4.222a8.424 8.424 0 001.776 1.492v3.646H9.607a3.02 3.02 0 00-3.017 3.017v1.376h-.058a.82.82 0 000 1.64h14.936a.82.82 0 100-1.64h-.058v-1.376a3.02 3.02 0 00-3.017-3.017h-1.376V18.32a8.42 8.42 0 001.777-1.492c2.48-.144 4.777-1.63 6.501-4.222C27.04 9.985 28 6.516 28 2.84a.82.82 0 00-.82-.82zM4.07 11.698c-1.438-2.162-2.283-4.99-2.412-8.035h2.847c.296 3.743 1.175 7.204 2.548 9.951.22.438.448.851.685 1.24-1.364-.515-2.627-1.592-3.667-3.156zm15.7 13.286v1.376H8.23v-1.376c0-.759.618-1.376 1.377-1.376h8.786c.76 0 1.377.617 1.377 1.376zm-4.394-3.017h-2.752v-2.933a5.369 5.369 0 002.752 0v2.933zm.508-4.885a.804.804 0 00-.106.054 3.968 3.968 0 01-1.778.438 3.97 3.97 0 01-1.885-.492c-.643-.34-1.265-.854-1.854-1.529a.83.83 0 00-.104-.122c-.585-.693-1.134-1.547-1.636-2.55C7.013 9.863 6.143 5.9 6.043 1.64h15.914c-.1 4.26-.97 8.225-2.478 11.24-.502 1.003-1.051 1.857-1.636 2.55a.811.811 0 00-.104.123c-.589.675-1.211 1.188-1.855 1.528zm8.045-5.384c-1.04 1.564-2.303 2.641-3.667 3.156.237-.389.466-.802.685-1.24 1.373-2.747 2.252-6.208 2.548-9.951h2.847c-.129 3.045-.974 5.873-2.413 8.035z" fill="#fff"/></svg>