<svg width="52" height="52" fill="none" xmlns="http://www.w3.org/2000/svg"><path d="M26 0C11.664 0 0 11.664 0 26c0 14.337 11.664 26 26 26s26-11.663 26-26C52 11.664 40.336 0 26 0zm0 47.273C14.27 47.273 4.727 37.73 4.727 26S14.27 4.727 26 4.727 47.273 14.27 47.273 26 37.73 47.273 26 47.273z" fill="#fff"/><path d="M26 11.03a3.155 3.155 0 00-3.151 3.153 3.154 3.154 0 003.15 3.15 3.154 3.154 0 003.152-3.15A3.155 3.155 0 0026 11.03zm0 11.03a2.364 2.364 0 00-2.364 2.364v14.182a2.364 2.364 0 104.728 0V24.424A2.364 2.364 0 0026 22.061z" fill="#fff"/></svg>