<svg width="112" height="112" fill="none" xmlns="http://www.w3.org/2000/svg"><circle cx="56" cy="56" r="56" fill="#4573DF"/><path d="M45.95 60.427c0 .895-.2 1.342-1.129 1.342h-.465v-9.705h.465c.93 0 1.129.47 1.129 1.342v7.021zm-4.582-11.293V64.7h3.851c1.572 0 2.878-.537 3.431-2.304.31-.961.31-2.952.31-5.5 0-2.573 0-4.697-.266-5.659-.42-1.52-1.46-2.102-3.275-2.102h-4.05zm18.355 15.565v-2.93h-4.05v-3.51h3.541v-2.93h-3.541V52.04h4.05v-2.907h-7.06V64.7h7.06zm9.419-3.042l.598-1.811.73-2.415h.088v7.268h3.01V49.134h-2.81l-1.505 4.093-1.063 3.153h-.133l-1.04-3.086-1.527-4.16h-2.81V64.7h2.987v-7.335h.11l.709 2.303.642 1.99h2.014zm12.661-.626c0 .716-.399.962-.885.962-.488 0-.908-.246-.908-.962v-8.23c0-.67.42-.96.907-.96.487 0 .886.29.886.96v8.23zm3.054-8.117c0-2.662-1.261-3.914-3.94-3.914C78.484 49 77 50.252 77 52.913v7.984c0 2.661 1.328 3.936 3.918 3.936 2.567 0 3.94-1.275 3.94-3.936v-7.983zm-36.804 24.77a8.34 8.34 0 01-.178 1.789c-.118.522-.317.97-.597 1.342a2.82 2.82 0 01-1.107.872c-.457.209-1.018.313-1.682.313-.62 0-1.15-.09-1.593-.268a3.24 3.24 0 01-1.107-.716 3.242 3.242 0 01-.642-1.096 4.48 4.48 0 01-.2-1.364l1.373-.29c0 .313.037.618.11.916.075.284.193.537.355.76.177.224.398.403.664.537.28.135.627.202 1.04.202.502 0 .893-.082 1.173-.246.295-.164.517-.38.664-.649a2.59 2.59 0 00.288-.94c.044-.357.066-.737.066-1.14a8.92 8.92 0 00-.066-1.207 1.792 1.792 0 00-.31-.828 2.334 2.334 0 00-.708-.648c-.295-.194-.701-.403-1.218-.626-.737-.328-1.328-.649-1.77-.962-.428-.313-.76-.634-.996-.962a3.068 3.068 0 01-.443-1.073 6.696 6.696 0 01-.11-1.252c0-.582.066-1.118.199-1.61a3.38 3.38 0 01.664-1.253 2.937 2.937 0 011.106-.827c.443-.209.967-.313 1.572-.313.664 0 1.217.104 1.66.313a2.76 2.76 0 011.062.783c.266.328.45.693.553 1.095.118.388.178.768.178 1.14l-1.373.336c0-.7-.162-1.267-.487-1.7-.31-.447-.863-.67-1.66-.67-.442 0-.804.09-1.084.268-.266.164-.48.38-.642.649-.148.253-.25.536-.31.85a6.542 6.542 0 00-.066.916c0 .343.03.649.088.917.06.269.177.522.354.76.192.24.465.47.82.694.353.223.833.462 1.438.715.664.269 1.188.552 1.571.85.384.283.672.604.864.962.206.343.339.73.398 1.163.059.432.089.931.089 1.498zm3.314 4.16V66.279h1.35v14.312h4.78v1.253h-6.13zm15.757-3.847c0 1.312-.295 2.31-.886 2.997-.575.67-1.453 1.006-2.633 1.006s-2.059-.32-2.634-.962c-.561-.64-.841-1.535-.841-2.683V70.17c0-.552.059-1.073.177-1.565s.31-.917.575-1.275c.28-.373.642-.663 1.085-.872.457-.209 1.01-.313 1.66-.313.664 0 1.217.097 1.66.29.457.18.819.448 1.084.806.266.343.458.76.576 1.252a6.72 6.72 0 01.177 1.61v7.894zm-1.373-8.095c0-.328-.037-.641-.11-.94a2.228 2.228 0 00-.354-.782 1.64 1.64 0 00-.664-.56c-.266-.148-.598-.223-.996-.223-.428 0-.782.097-1.063.29-.28.18-.501.41-.664.694-.162.283-.28.596-.354.94a5.31 5.31 0 00-.088.939v8.117c0 .298.037.59.11.872.089.284.214.537.377.76.177.224.398.403.663.537.28.135.613.202.997.202.782 0 1.335-.254 1.66-.76.324-.507.486-1.119.486-1.834v-8.252zm8.061-2.371v14.313h-1.394V67.53H69.65v-1.25h6.928v1.252h-2.767zm12.136 10.153c0 .656-.06 1.252-.177 1.789-.118.522-.318.97-.598 1.342a2.82 2.82 0 01-1.107.872c-.457.209-1.018.313-1.682.313-.62 0-1.15-.09-1.593-.268a3.241 3.241 0 01-1.107-.716 3.243 3.243 0 01-.642-1.096 4.48 4.48 0 01-.199-1.364l1.372-.29c0 .313.037.618.11.916.075.284.193.537.355.76.177.224.398.403.664.537.28.135.627.202 1.04.202.502 0 .893-.082 1.173-.246.296-.164.517-.38.664-.649.148-.268.244-.581.288-.94.044-.357.067-.737.067-1.14a8.92 8.92 0 00-.067-1.207 1.793 1.793 0 00-.31-.828 2.335 2.335 0 00-.708-.648 8.146 8.146 0 00-1.217-.626c-.738-.328-1.328-.649-1.771-.962-.428-.313-.76-.634-.996-.962a3.069 3.069 0 01-.443-1.073 6.705 6.705 0 01-.11-1.252c0-.582.066-1.118.199-1.61.147-.492.369-.91.664-1.253a2.938 2.938 0 011.107-.827c.442-.209.966-.313 1.571-.313.664 0 1.217.104 1.66.313.443.194.797.455 1.062.783.266.328.45.693.554 1.095.118.388.177.768.177 1.14l-1.372.336c0-.7-.163-1.267-.487-1.7-.31-.447-.864-.67-1.66-.67-.443 0-.805.09-1.085.268-.265.164-.48.38-.642.649-.147.253-.25.536-.31.85a6.557 6.557 0 00-.066.916c0 .343.03.649.089.917.058.269.176.522.354.76.191.24.464.47.819.694.354.223.833.462 1.438.715.664.269 1.188.552 1.572.85.383.283.671.604.863.962.206.343.34.73.398 1.163.06.432.089.931.089 1.498zM20.063 51.2c.149 0 .282.092.338.23l2.552 6.352a.367.367 0 01-.495.47l-.996-.463-.01 2.152a4.616 4.616 0 001.347 3.291c.526.53 1.163.898 1.85 1.124l.044-9.667-.998.453a.367.367 0 01-.49-.473l2.607-6.33a.364.364 0 01.34-.226c.15 0 .283.09.339.229l2.55 6.353a.37.37 0 01-.087.402.368.368 0 01-.407.067l-.995-.462-.043 9.663c1.862-.598 3.226-2.322 3.236-4.383l.01-2.152-.998.453a.368.368 0 01-.49-.473l2.606-6.329a.368.368 0 01.68.003l2.55 6.352a.366.366 0 01-.494.47l-.995-.463-.01 2.152c-.016 3.648-2.648 6.683-6.108 7.337l-.07 15.806a1.429 1.429 0 11-2.859-.013l.07-15.805a7.493 7.493 0 01-3.866-2.077 7.482 7.482 0 01-2.177-5.315l.01-2.152-.998.453a.367.367 0 01-.49-.473l2.606-6.329a.369.369 0 01.34-.227z" fill="#fff"/></svg>