<svg width="38" height="142" fill="none" xmlns="http://www.w3.org/2000/svg"><g clip-path="url(#clip0)" fill="#fff"><path d="M18.97 0C12.808 0 7.794 5.014 7.794 11.178v15.645C7.793 32.986 12.807 38 18.971 38c6.163 0 11.177-5.014 11.177-11.177V11.177C30.148 5.014 25.134 0 18.971 0zm8.898 26.823c0 4.905-3.991 8.897-8.897 8.897-4.906 0-8.898-3.991-8.898-8.897V11.177c0-4.906 3.992-8.897 8.898-8.897 4.905 0 8.897 3.991 8.897 8.898v15.645z"/><path d="M18.97 7.56c-.629 0-1.14.51-1.14 1.14v5.246a1.14 1.14 0 002.28 0V8.7c0-.63-.51-1.14-1.14-1.14z"/></g><path stroke="url(#paint0_linear)" d="M18.5 45v97"/><defs><linearGradient id="paint0_linear" x1="17" y1="62.766" x2="17" y2="93.5" gradientUnits="userSpaceOnUse"><stop stop-color="#fff"/><stop offset="1" stop-color="#fff" stop-opacity="0"/></linearGradient><clipPath id="clip0"><path fill="#fff" d="M0 0h38v38H0z"/></clipPath></defs></svg>