<svg width="34" height="34" fill="none" xmlns="http://www.w3.org/2000/svg"><path d="M33.05 16.132a3.115 3.115 0 00.794-3.215 3.116 3.116 0 00-2.532-2.134l-7.35-1.068a1.146 1.146 0 01-.863-.627l-3.287-6.66A3.117 3.117 0 0017 .678c-1.203 0-2.28.67-2.813 1.748L10.9 9.088a1.148 1.148 0 01-.861.627l-7.351 1.068a3.116 3.116 0 00-2.532 2.134 3.116 3.116 0 00.793 3.215l5.32 5.185c.27.263.392.642.329 1.013l-1.256 7.32a3.117 3.117 0 001.248 3.067 3.118 3.118 0 003.303.24l6.574-3.457a1.145 1.145 0 011.065 0l6.575 3.456c1.065.56 2.33.468 3.303-.239a3.117 3.117 0 001.248-3.067l-1.256-7.32c-.064-.372.06-.751.33-1.014l5.318-5.185zm-7.612 6.534l1.257 7.322c.075.439-.095.857-.456 1.119a1.135 1.135 0 01-1.205.087l-6.575-3.457a3.15 3.15 0 00-1.459-.36 3.15 3.15 0 00-1.46.36l-6.574 3.457a1.127 1.127 0 01-1.205-.087c-.36-.262-.53-.68-.455-1.12l1.255-7.32a3.136 3.136 0 00-.902-2.777L2.34 14.705a1.121 1.121 0 01-.29-1.172c.138-.424.483-.715.924-.779l7.35-1.068a3.138 3.138 0 002.363-1.716l3.287-6.66c.197-.4.58-.638 1.026-.638.445 0 .829.238 1.026.637l3.287 6.66a3.138 3.138 0 002.361 1.717l7.352 1.068c.44.064.786.355.923.778.138.425.03.863-.289 1.173l-5.319 5.185a3.137 3.137 0 00-.903 2.776z" fill="#4573DF"/></svg>