<svg width="86" height="72" fill="none" xmlns="http://www.w3.org/2000/svg"><path d="M85.563 67.34l-4.098-6.147 4.098-6.146c1.147-1.696-.106-3.944-2.104-3.931H70.71v-7.558a2.52 2.52 0 00-2.519-2.52h-9.164l-1.342-7.824 11.032-10.753a2.52 2.52 0 00-1.396-4.297l-15.246-2.215-6.818-13.815a2.52 2.52 0 00-4.518 0L33.922 15.95l-15.245 2.215a2.52 2.52 0 00-1.396 4.297l11.031 10.753-1.341 7.825h-9.165a2.52 2.52 0 00-2.519 2.52v7.557H2.54c-1.99-.02-3.251 2.236-2.105 3.93l4.098 6.147L.435 67.34c-.469.693-.434 1.431-.432 1.414a2.524 2.524 0 002.517 2.517h25.363a2.52 2.52 0 002.52-2.52v-7.558h25.193v7.558a2.52 2.52 0 002.519 2.52h25.363c2.03 0 3.203-2.279 2.085-3.931zm-6.794-11.185l-2.428 3.64a2.52 2.52 0 000 2.796l2.428 3.64H68.184a12.53 12.53 0 002.526-7.557v-2.52h8.058zM33.245 34.26l7.235-2.35v7.607l-8.943 4.702 1.708-9.959zm12.273-2.35l7.235 2.35 1.708 9.958-8.943-4.701V31.91zm8.792-2.442l-6.706-2.179 4.693-6.217 9.248 1.344-7.235 7.052zM43 8.942l4.8 9.726-4.48 5.932-4.793-6.598 4.471-9.06zM24.452 22.416l9.999-1.453 4.47 6.155-7.234 2.35-7.235-7.052zm-4.128 23.661h5.781l-.398 2.321a2.52 2.52 0 003.655 2.656L43 43.885l13.636 7.169a2.519 2.519 0 003.655-2.656l-.398-2.32h5.78v10.077H20.326V46.077zm-5.038 12.597c0 2.833.94 5.451 2.526 7.558H7.23l2.427-3.641a2.52 2.52 0 000-2.795L7.23 56.155h8.057v2.519zm10.077 7.125a7.594 7.594 0 01-4.605-4.606h4.605V65.8zm39.876-4.606a7.594 7.594 0 01-4.606 4.606v-4.606h4.606z" fill="#FFB525"/><path d="M26.865 10.522a2.519 2.519 0 104.077-2.962l-4.209-5.792a2.52 2.52 0 10-4.076 2.962l4.208 5.792zm29.729.678a2.52 2.52 0 003.529-.494l4.483-5.94a2.52 2.52 0 10-4.02-3.035l-4.484 5.94a2.52 2.52 0 00.492 3.528z" fill="#FFB525"/></svg>