<svg width="71" height="68" fill="none" xmlns="http://www.w3.org/2000/svg"><path d="M64.762 18.06h-5.628l-2.804-7.476A15.816 15.816 0 0041.515.316H29.514a15.816 15.816 0 00-14.816 10.268l-2.803 7.475H6.267a6.245 6.245 0 00-6.238 6.238v37.149a6.245 6.245 0 006.238 6.238h58.495A6.245 6.245 0 0071 61.446v-37.15a6.245 6.245 0 00-6.238-6.237zm-46.17-6.016c1.698-4.527 6.087-7.57 10.922-7.57h12c4.836 0 9.225 3.043 10.923 7.57l2.256 6.015H16.336l2.256-6.015zm48.25 49.402c0 1.146-.933 2.08-2.08 2.08H6.267a2.082 2.082 0 01-2.08-2.08v-37.15c0-1.146.933-2.078 2.08-2.078h58.495c1.147 0 2.08.932 2.08 2.079v37.149z" fill="#FFB525"/><path d="M11.395 31.09h7.197l-7.014 15.955a2.08 2.08 0 103.807 1.674l8.296-18.873a2.08 2.08 0 00-1.903-2.915H11.395a2.08 2.08 0 000 4.158zm18.852 0h7.197L30.43 47.044a2.08 2.08 0 103.807 1.674l8.296-18.873a2.08 2.08 0 00-1.904-2.915H30.247a2.08 2.08 0 100 4.158zm18.852 0h7.197l-7.014 15.955a2.08 2.08 0 103.807 1.674l8.295-18.873a2.08 2.08 0 00-1.903-2.915H49.1a2.08 2.08 0 100 4.158zM37.553 10.86a2.08 2.08 0 10-4.028 1.011 2.077 2.077 0 002.594 1.385c1.086-.355 1.625-1.376 1.434-2.395zm-8.873 0c-.223-1.178-1.452-1.944-2.64-1.582a2.08 2.08 0 101.207 3.978c1.118-.365 1.632-1.44 1.434-2.395zm17.745 0a2.08 2.08 0 10-1.435 2.395c1.105-.36 1.622-1.393 1.435-2.394zM59.91 54.654H11.119a2.08 2.08 0 100 4.158h48.793a2.08 2.08 0 000-4.158z" fill="#FFB525"/></svg>