<svg width="475" height="599" viewBox="0 0 475 599" fill="none" xmlns="http://www.w3.org/2000/svg">
<mask id="mask0" mask-type="alpha" maskUnits="userSpaceOnUse" x="0" y="0" width="475" height="599">
<path d="M0 30C0 13.4314 13.4315 0 30 0H445C461.569 0 475 13.4315 475 30V599H0V30Z" fill="url(#paint0_linear)"/>
</mask>
<g mask="url(#mask0)">
<g opacity="0.1" filter="url(#filter0_d)">
<path d="M309.897 184.989C311.6 185.639 312.741 187.251 312.793 189.075L314.923 272.718C314.963 274.547 313.888 276.229 312.199 276.944C310.508 277.67 308.547 277.287 307.257 275.982L297.824 266.44L288.536 291.049C283.183 305.243 283.673 320.664 289.925 334.495C293.682 342.806 299.411 349.734 306.325 355.257L348.052 244.706L334.691 245.639C332.85 245.765 331.136 244.764 330.335 243.101C329.552 241.447 329.849 239.48 331.097 238.129L387.951 176.737C389.193 175.398 391.112 174.942 392.818 175.597C394.525 176.232 395.668 177.843 395.717 179.668L397.837 263.315C397.883 265.155 396.802 266.827 395.12 267.555C393.422 268.268 391.476 267.888 390.173 266.58L380.746 257.043L339.041 367.559C362.928 368.647 385.908 354.712 394.807 331.153L404.093 306.542L390.734 307.478C388.89 307.599 387.178 306.597 386.378 304.934C385.592 303.281 385.889 301.316 387.137 299.964L443.985 238.582C445.23 237.248 447.145 236.792 448.859 237.43C450.563 238.082 451.702 239.688 451.752 241.513L453.884 325.16C453.924 326.989 452.85 328.672 451.162 329.385C449.469 330.112 447.509 329.724 446.222 328.424L436.788 318.882L427.5 343.49C411.755 385.214 368.661 408.751 326.238 401.488L258.025 582.249C254.619 591.281 244.541 595.836 235.512 592.426C230.996 590.723 227.599 587.351 225.758 583.278C223.916 579.203 223.628 574.427 225.334 569.911L293.546 389.151C277.68 379.378 265.511 365.218 258.122 348.872C248.445 327.465 246.917 302.375 255.846 278.712L265.133 254.103L251.772 255.034C249.928 255.155 248.216 254.16 247.417 252.498C246.629 250.844 246.927 248.873 248.176 247.521L305.026 186.144C306.268 184.806 308.186 184.356 309.897 184.989Z" fill="white"/>
</g>
<path d="M331.328 64.3841C331.328 66.7144 330.807 67.8796 328.373 67.8796H327.156V42.5952H328.373C330.807 42.5952 331.328 43.8187 331.328 46.0908V64.3841ZM319.334 34.9633V75.5115H329.416C333.53 75.5115 336.949 74.1133 338.398 69.5108C339.209 67.0057 339.209 61.8207 339.209 55.1792C339.209 48.4794 339.209 42.9448 338.514 40.4397C337.413 36.4781 334.689 34.9633 329.938 34.9633H319.334Z" fill="white"/>
<path d="M367.387 75.5115V67.8796H356.783V58.733H366.054V51.101H356.783V42.537H367.387V34.9633H348.903V75.5115H367.387Z" fill="white"/>
<path d="M392.046 67.5883L393.611 62.8693L395.523 56.5774H395.755V75.5115H403.635V34.9633H396.276L392.336 45.6247L389.554 53.8392H389.207L386.483 45.7995L382.485 34.9633H375.126V75.5115H382.949V56.4026H383.238L385.093 62.4033L386.773 67.5883H392.046Z" fill="white"/>
<path d="M425.193 65.9571C425.193 67.8213 424.15 68.4622 422.875 68.4622C421.6 68.4622 420.499 67.8213 420.499 65.9571V44.5178C420.499 42.77 421.6 42.0126 422.875 42.0126C424.15 42.0126 425.193 42.77 425.193 44.5178V65.9571ZM433.189 44.8091C433.189 37.8763 429.886 34.6138 422.875 34.6138C416.501 34.6138 412.619 37.8763 412.619 44.8091V65.6075C412.619 72.5403 416.095 75.8611 422.875 75.8611C429.597 75.8611 433.189 72.5403 433.189 65.6075V44.8091Z" fill="white"/>
<path d="M336.833 109.341C336.833 111.049 336.679 112.603 336.37 114.001C336.061 115.361 335.539 116.526 334.805 117.497C334.071 118.468 333.105 119.225 331.908 119.769C330.71 120.313 329.242 120.584 327.504 120.584C325.881 120.584 324.491 120.351 323.332 119.885C322.173 119.419 321.207 118.798 320.435 118.021C319.701 117.205 319.14 116.254 318.754 115.166C318.407 114.079 318.233 112.894 318.233 111.613L321.825 110.855C321.825 111.671 321.922 112.467 322.115 113.244C322.308 113.982 322.617 114.642 323.042 115.225C323.506 115.807 324.085 116.273 324.781 116.623C325.514 116.972 326.422 117.147 327.504 117.147C328.817 117.147 329.841 116.934 330.575 116.506C331.348 116.079 331.927 115.516 332.313 114.817C332.7 114.118 332.951 113.302 333.067 112.37C333.183 111.438 333.241 110.447 333.241 109.399C333.241 108.117 333.183 107.068 333.067 106.253C332.951 105.398 332.68 104.68 332.255 104.097C331.831 103.476 331.212 102.913 330.401 102.408C329.629 101.903 328.566 101.359 327.214 100.776C325.283 99.922 323.737 99.087 322.579 98.2713C321.458 97.4557 320.589 96.6207 319.971 95.7662C319.392 94.8729 319.005 93.9407 318.812 92.9698C318.619 91.9599 318.522 90.8724 318.522 89.7073C318.522 88.1925 318.696 86.7943 319.044 85.5126C319.43 84.2309 320.01 83.1434 320.782 82.2501C321.555 81.318 322.521 80.5995 323.68 80.0945C324.838 79.5508 326.21 79.2789 327.794 79.2789C329.532 79.2789 330.981 79.5508 332.14 80.0945C333.298 80.5995 334.226 81.2791 334.921 82.1336C335.616 82.9881 336.099 83.9396 336.37 84.9883C336.679 85.9981 336.833 86.9885 336.833 87.9595L333.241 88.8334C333.241 87.0079 332.816 85.532 331.966 84.4057C331.155 83.2405 329.706 82.6579 327.62 82.6579C326.461 82.6579 325.514 82.891 324.781 83.357C324.085 83.7843 323.525 84.3474 323.1 85.0466C322.714 85.7068 322.443 86.4448 322.289 87.2604C322.173 88.076 322.115 88.8722 322.115 89.649C322.115 90.5423 322.192 91.3385 322.347 92.0376C322.501 92.7367 322.81 93.397 323.274 94.0184C323.776 94.6399 324.491 95.2419 325.418 95.8245C326.345 96.407 327.601 97.0285 329.184 97.6887C330.923 98.3878 332.294 99.1258 333.298 99.9026C334.303 100.641 335.056 101.476 335.558 102.408C336.099 103.301 336.447 104.311 336.601 105.437C336.756 106.564 336.833 107.865 336.833 109.341Z" fill="white"/>
<path d="M345.51 120.177V79.6285H349.045V116.914H361.561V120.177H345.51Z" fill="white"/>
<path d="M386.762 110.156C386.762 113.574 385.99 116.176 384.444 117.963C382.938 119.711 380.639 120.584 377.549 120.584C374.458 120.584 372.16 119.749 370.653 118.079C369.185 116.409 368.451 114.079 368.451 111.088V89.7655C368.451 88.3285 368.606 86.9691 368.915 85.6874C369.224 84.4057 369.726 83.2988 370.422 82.3666C371.156 81.3957 372.102 80.6383 373.261 80.0945C374.458 79.5508 375.907 79.2789 377.607 79.2789C379.345 79.2789 380.794 79.5314 381.953 80.0363C383.15 80.5024 384.097 81.2015 384.792 82.1336C385.487 83.0269 385.99 84.1144 386.299 85.3961C386.608 86.639 386.762 88.0372 386.762 89.5907V110.156ZM383.17 89.0664C383.17 88.212 383.073 87.3963 382.88 86.6195C382.687 85.8428 382.378 85.1631 381.953 84.5805C381.528 83.9591 380.948 83.4736 380.214 83.124C379.519 82.7356 378.65 82.5414 377.607 82.5414C376.487 82.5414 375.559 82.7939 374.825 83.2988C374.091 83.7649 373.512 84.3669 373.087 85.1048C372.662 85.8428 372.353 86.6584 372.16 87.5517C372.005 88.4062 371.928 89.2218 371.928 89.9986V111.147C371.928 111.923 372.025 112.681 372.218 113.419C372.45 114.157 372.778 114.817 373.203 115.399C373.667 115.982 374.246 116.448 374.941 116.798C375.675 117.147 376.545 117.322 377.549 117.322C379.596 117.322 381.045 116.662 381.895 115.341C382.745 114.021 383.17 112.428 383.17 110.564V89.0664Z" fill="white"/>
<path d="M404.272 82.891V120.177H400.622V82.891H393.378V79.6285H411.515V82.891H404.272Z" fill="white"/>
<path d="M436.044 109.341C436.044 111.049 435.89 112.603 435.581 114.001C435.272 115.361 434.75 116.526 434.016 117.497C433.282 118.468 432.317 119.225 431.119 119.769C429.921 120.313 428.454 120.584 426.715 120.584C425.093 120.584 423.702 120.351 422.543 119.885C421.384 119.419 420.418 118.798 419.646 118.021C418.912 117.205 418.352 116.254 417.965 115.166C417.618 114.079 417.444 112.894 417.444 111.613L421.036 110.855C421.036 111.671 421.133 112.467 421.326 113.244C421.519 113.982 421.828 114.642 422.253 115.225C422.717 115.807 423.296 116.273 423.992 116.623C424.726 116.972 425.634 117.147 426.715 117.147C428.029 117.147 429.052 116.934 429.786 116.506C430.559 116.079 431.138 115.516 431.525 114.817C431.911 114.118 432.162 113.302 432.278 112.37C432.394 111.438 432.452 110.447 432.452 109.399C432.452 108.117 432.394 107.068 432.278 106.253C432.162 105.398 431.892 104.68 431.467 104.097C431.042 103.476 430.424 102.913 429.612 102.408C428.84 101.903 427.777 101.359 426.425 100.776C424.494 99.922 422.949 99.087 421.79 98.2713C420.67 97.4557 419.8 96.6207 419.182 95.7662C418.603 94.8729 418.216 93.9407 418.023 92.9698C417.83 91.9599 417.734 90.8724 417.734 89.7073C417.734 88.1925 417.907 86.7943 418.255 85.5126C418.641 84.2309 419.221 83.1434 419.993 82.2501C420.766 81.318 421.732 80.5995 422.891 80.0945C424.05 79.5508 425.421 79.2789 427.005 79.2789C428.743 79.2789 430.192 79.5508 431.351 80.0945C432.51 80.5995 433.437 81.2791 434.132 82.1336C434.828 82.9881 435.31 83.9396 435.581 84.9883C435.89 85.9981 436.044 86.9885 436.044 87.9595L432.452 88.8334C432.452 87.0079 432.027 85.532 431.177 84.4057C430.366 83.2405 428.917 82.6579 426.831 82.6579C425.672 82.6579 424.726 82.891 423.992 83.357C423.296 83.7843 422.736 84.3474 422.311 85.0466C421.925 85.7068 421.655 86.4448 421.5 87.2604C421.384 88.076 421.326 88.8722 421.326 89.649C421.326 90.5423 421.403 91.3385 421.558 92.0376C421.713 92.7367 422.022 93.397 422.485 94.0184C422.987 94.6399 423.702 95.2419 424.629 95.8245C425.556 96.407 426.812 97.0285 428.396 97.6887C430.134 98.3878 431.505 99.1258 432.51 99.9026C433.514 100.641 434.267 101.476 434.77 102.408C435.31 103.301 435.658 104.311 435.813 105.437C435.967 106.564 436.044 107.865 436.044 109.341Z" fill="white"/>
<g filter="url(#filter1_d)">
<path d="M264.344 40.0226C264.729 40.0257 265.074 40.2611 265.219 40.6187L271.812 57.035C271.955 57.3944 271.866 57.807 271.584 58.0733C271.302 58.3418 270.886 58.4107 270.534 58.2471L267.961 57.0524L267.936 62.6138C267.922 65.8211 269.157 68.8406 271.416 71.1199C272.774 72.4895 274.42 73.4395 276.198 74.0238L276.31 49.0404L273.731 50.2109C273.376 50.3717 272.962 50.2999 272.681 50.0295C272.404 49.7596 272.317 49.3479 272.465 48.9881L279.201 32.6292C279.349 32.2723 279.695 32.0403 280.081 32.0442C280.467 32.0442 280.812 32.2791 280.956 32.637L287.547 49.0549C287.692 49.4161 287.601 49.8272 287.322 50.0954C287.038 50.3619 286.624 50.4302 286.27 50.2672L283.698 49.073L283.588 74.0478C288.401 72.5012 291.926 68.0447 291.952 62.7201L291.976 57.1586L289.398 58.3296C289.041 58.4895 288.628 58.4172 288.347 58.1469C288.069 57.8772 287.983 57.466 288.131 57.106L294.867 40.7496C295.015 40.3934 295.361 40.1619 295.747 40.1618C296.133 40.1653 296.477 40.3994 296.622 40.7574L303.215 57.1744C303.358 57.5338 303.269 57.9466 302.988 58.2124C302.706 58.4813 302.289 58.549 301.938 58.3864L299.364 57.1916L299.34 62.7528C299.298 72.1817 292.496 80.0246 283.554 81.7152L283.373 122.564C283.365 124.605 281.704 126.251 279.663 126.242C278.643 126.238 277.721 125.82 277.055 125.149C276.39 124.477 275.981 123.552 275.985 122.531L276.166 81.6826C272.301 80.9165 268.845 79.0086 266.175 76.3148C262.679 72.787 260.525 67.9283 260.548 62.5808L260.573 57.0195L257.994 58.1898C257.638 58.3498 257.225 58.2789 256.944 58.0086C256.666 57.739 256.58 57.3265 256.727 56.9665L263.464 40.6109C263.611 40.2541 263.958 40.0234 264.344 40.0226Z" fill="white"/>
</g>
</g>
<defs>
<filter id="filter0_d" x="86" y="136" width="467.205" height="467.2" filterUnits="userSpaceOnUse" color-interpolation-filters="sRGB">
<feFlood flood-opacity="0" result="BackgroundImageFix"/>
<feColorMatrix in="SourceAlpha" type="matrix" values="0 0 0 0 0 0 0 0 0 0 0 0 0 0 0 0 0 0 127 0"/>
<feOffset/>
<feGaussianBlur stdDeviation="2"/>
<feColorMatrix type="matrix" values="0 0 0 0 0.270588 0 0 0 0 0.45098 0 0 0 0 0.87451 0 0 0 1 0"/>
<feBlend mode="normal" in2="BackgroundImageFix" result="effect1_dropShadow"/>
<feBlend mode="normal" in="SourceGraphic" in2="effect1_dropShadow" result="shape"/>
</filter>
<filter id="filter1_d" x="224" y="20" width="111.773" height="111.773" filterUnits="userSpaceOnUse" color-interpolation-filters="sRGB">
<feFlood flood-opacity="0" result="BackgroundImageFix"/>
<feColorMatrix in="SourceAlpha" type="matrix" values="0 0 0 0 0 0 0 0 0 0 0 0 0 0 0 0 0 0 127 0"/>
<feOffset/>
<feGaussianBlur stdDeviation="2"/>
<feColorMatrix type="matrix" values="0 0 0 0 0.270588 0 0 0 0 0.45098 0 0 0 0 0.87451 0 0 0 1 0"/>
<feBlend mode="normal" in2="BackgroundImageFix" result="effect1_dropShadow"/>
<feBlend mode="normal" in="SourceGraphic" in2="effect1_dropShadow" result="shape"/>
</filter>
<linearGradient id="paint0_linear" x1="237.5" y1="394.702" x2="246.951" y2="574.334" gradientUnits="userSpaceOnUse">
<stop stop-color="#4573DF"/>
<stop offset="1" stop-color="#4573DF" stop-opacity="0"/>
</linearGradient>
</defs>
</svg>
