<svg width="389" height="579" viewBox="0 0 389 579" fill="none" xmlns="http://www.w3.org/2000/svg">
<g opacity="0.1" filter="url(#filter0_d)">
<path d="M223.897 164.989C225.6 165.639 226.741 167.251 226.793 169.075L228.923 252.718C228.963 254.547 227.888 256.229 226.199 256.944C224.508 257.67 222.547 257.287 221.257 255.982L211.824 246.44L202.536 271.049C197.183 285.243 197.673 300.664 203.925 314.495C207.682 322.806 213.411 329.734 220.325 335.257L262.052 224.706L248.691 225.639C246.85 225.765 245.136 224.764 244.335 223.101C243.552 221.447 243.849 219.48 245.097 218.129L301.951 156.737C303.193 155.398 305.112 154.942 306.818 155.597C308.525 156.232 309.668 157.843 309.717 159.668L311.837 243.315C311.883 245.155 310.802 246.827 309.12 247.555C307.422 248.268 305.476 247.888 304.173 246.58L294.746 237.043L253.041 347.559C276.928 348.647 299.908 334.712 308.807 311.153L318.093 286.542L304.734 287.478C302.89 287.599 301.178 286.597 300.378 284.934C299.592 283.281 299.889 281.316 301.137 279.964L357.985 218.582C359.23 217.248 361.145 216.792 362.859 217.43C364.563 218.082 365.702 219.688 365.752 221.513L367.884 305.16C367.924 306.989 366.85 308.672 365.162 309.385C363.469 310.112 361.509 309.724 360.222 308.424L350.788 298.882L341.5 323.49C325.755 365.214 282.661 388.751 240.238 381.488L172.025 562.249C168.619 571.281 158.541 575.836 149.512 572.426C144.996 570.723 141.599 567.351 139.758 563.278C137.916 559.203 137.628 554.427 139.334 549.911L207.546 369.151C191.68 359.378 179.511 345.218 172.122 328.872C162.445 307.465 160.917 282.375 169.846 258.712L179.133 234.103L165.772 235.034C163.928 235.155 162.216 234.16 161.417 232.498C160.629 230.844 160.927 228.873 162.176 227.521L219.026 166.144C220.268 164.806 222.186 164.356 223.897 164.989Z" fill="white"/>
</g>
<path d="M245.328 44.3841C245.328 46.7144 244.807 47.8796 242.373 47.8796H241.156V22.5952H242.373C244.807 22.5952 245.328 23.8187 245.328 26.0908V44.3841ZM233.334 14.9633V55.5115H243.416C247.53 55.5115 250.949 54.1133 252.398 49.5108C253.209 47.0057 253.209 41.8207 253.209 35.1792C253.209 28.4794 253.209 22.9448 252.514 20.4397C251.413 16.4781 248.689 14.9633 243.938 14.9633H233.334Z" fill="white"/>
<path d="M281.387 55.5115V47.8796H270.783V38.733H280.054V31.101H270.783V22.537H281.387V14.9633H262.903V55.5115H281.387Z" fill="white"/>
<path d="M306.046 47.5883L307.611 42.8693L309.523 36.5774H309.755V55.5115H317.635V14.9633H310.276L306.336 25.6247L303.554 33.8392H303.207L300.483 25.7995L296.485 14.9633H289.126V55.5115H296.949V36.4026H297.238L299.093 42.4033L300.773 47.5883H306.046Z" fill="white"/>
<path d="M339.193 45.9571C339.193 47.8213 338.15 48.4622 336.875 48.4622C335.6 48.4622 334.499 47.8213 334.499 45.9571V24.5178C334.499 22.77 335.6 22.0126 336.875 22.0126C338.15 22.0126 339.193 22.77 339.193 24.5178V45.9571ZM347.189 24.8091C347.189 17.8763 343.886 14.6138 336.875 14.6138C330.501 14.6138 326.619 17.8763 326.619 24.8091V45.6075C326.619 52.5403 330.095 55.8611 336.875 55.8611C343.597 55.8611 347.189 52.5403 347.189 45.6075V24.8091Z" fill="white"/>
<path d="M250.833 89.3405C250.833 91.0494 250.679 92.603 250.37 94.0012C250.061 95.3606 249.539 96.5258 248.805 97.4968C248.071 98.4677 247.105 99.2251 245.908 99.7689C244.71 100.313 243.242 100.584 241.504 100.584C239.881 100.584 238.491 100.351 237.332 99.8854C236.173 99.4193 235.207 98.7979 234.435 98.0211C233.701 97.2055 233.14 96.2539 232.754 95.1664C232.407 94.0789 232.233 92.8943 232.233 91.6126L235.825 90.8552C235.825 91.6709 235.922 92.4671 236.115 93.2439C236.308 93.9818 236.617 94.6421 237.042 95.2247C237.506 95.8073 238.085 96.2733 238.781 96.6229C239.514 96.9724 240.422 97.1472 241.504 97.1472C242.817 97.1472 243.841 96.9336 244.575 96.5064C245.348 96.0791 245.927 95.516 246.313 94.8168C246.7 94.1177 246.951 93.3021 247.067 92.37C247.183 91.4378 247.241 90.4474 247.241 89.3988C247.241 88.1171 247.183 87.0684 247.067 86.2528C246.951 85.3983 246.68 84.6798 246.255 84.0972C245.831 83.4758 245.212 82.9126 244.401 82.4077C243.629 81.9028 242.566 81.359 241.214 80.7765C239.283 79.922 237.737 79.087 236.579 78.2713C235.458 77.4557 234.589 76.6207 233.971 75.7662C233.392 74.8729 233.005 73.9407 232.812 72.9698C232.619 71.9599 232.522 70.8724 232.522 69.7073C232.522 68.1925 232.696 66.7943 233.044 65.5126C233.43 64.2309 234.01 63.1434 234.782 62.2501C235.555 61.318 236.521 60.5995 237.68 60.0945C238.838 59.5508 240.21 59.2789 241.794 59.2789C243.532 59.2789 244.981 59.5508 246.14 60.0945C247.298 60.5995 248.226 61.2791 248.921 62.1336C249.616 62.9881 250.099 63.9396 250.37 64.9883C250.679 65.9981 250.833 66.9885 250.833 67.9595L247.241 68.8334C247.241 67.0079 246.816 65.532 245.966 64.4057C245.155 63.2405 243.706 62.6579 241.62 62.6579C240.461 62.6579 239.514 62.891 238.781 63.357C238.085 63.7843 237.525 64.3474 237.1 65.0466C236.714 65.7068 236.443 66.4448 236.289 67.2604C236.173 68.076 236.115 68.8722 236.115 69.649C236.115 70.5423 236.192 71.3385 236.347 72.0376C236.501 72.7367 236.81 73.397 237.274 74.0184C237.776 74.6399 238.491 75.2419 239.418 75.8245C240.345 76.407 241.601 77.0285 243.184 77.6887C244.923 78.3878 246.294 79.1258 247.298 79.9026C248.303 80.6405 249.056 81.4756 249.558 82.4077C250.099 83.301 250.447 84.3108 250.601 85.4372C250.756 86.5635 250.833 87.8646 250.833 89.3405Z" fill="white"/>
<path d="M259.51 100.177V59.6285H263.045V96.9142H275.561V100.177H259.51Z" fill="white"/>
<path d="M300.762 90.1561C300.762 93.574 299.99 96.1762 298.444 97.9628C296.938 99.7106 294.639 100.584 291.549 100.584C288.458 100.584 286.16 99.7494 284.653 98.0793C283.185 96.4093 282.451 94.0789 282.451 91.0883V69.7655C282.451 68.3285 282.606 66.9691 282.915 65.6874C283.224 64.4057 283.726 63.2988 284.422 62.3666C285.156 61.3957 286.102 60.6383 287.261 60.0945C288.458 59.5508 289.907 59.2789 291.607 59.2789C293.345 59.2789 294.794 59.5314 295.953 60.0363C297.15 60.5024 298.097 61.2015 298.792 62.1336C299.487 63.0269 299.99 64.1144 300.299 65.3961C300.608 66.639 300.762 68.0372 300.762 69.5907V90.1561ZM297.17 69.0664C297.17 68.212 297.073 67.3963 296.88 66.6195C296.687 65.8428 296.378 65.1631 295.953 64.5805C295.528 63.9591 294.948 63.4736 294.214 63.124C293.519 62.7356 292.65 62.5414 291.607 62.5414C290.487 62.5414 289.559 62.7939 288.825 63.2988C288.091 63.7649 287.512 64.3669 287.087 65.1048C286.662 65.8428 286.353 66.6584 286.16 67.5517C286.005 68.4062 285.928 69.2218 285.928 69.9986V91.1465C285.928 91.9233 286.025 92.6807 286.218 93.4186C286.45 94.1566 286.778 94.8169 287.203 95.3994C287.667 95.982 288.246 96.4481 288.941 96.7977C289.675 97.1472 290.545 97.322 291.549 97.322C293.596 97.322 295.045 96.6617 295.895 95.3412C296.745 94.0206 297.17 92.4282 297.17 90.5639V69.0664Z" fill="white"/>
<path d="M318.272 62.891V100.177H314.622V62.891H307.378V59.6285H325.515V62.891H318.272Z" fill="white"/>
<path d="M350.044 89.3405C350.044 91.0494 349.89 92.603 349.581 94.0012C349.272 95.3606 348.75 96.5258 348.016 97.4968C347.282 98.4677 346.317 99.2251 345.119 99.7689C343.921 100.313 342.454 100.584 340.715 100.584C339.093 100.584 337.702 100.351 336.543 99.8854C335.384 99.4193 334.418 98.7979 333.646 98.0211C332.912 97.2055 332.352 96.2539 331.965 95.1664C331.618 94.0789 331.444 92.8943 331.444 91.6126L335.036 90.8552C335.036 91.6709 335.133 92.4671 335.326 93.2439C335.519 93.9818 335.828 94.6421 336.253 95.2247C336.717 95.8073 337.296 96.2733 337.992 96.6229C338.726 96.9724 339.634 97.1472 340.715 97.1472C342.029 97.1472 343.052 96.9336 343.786 96.5064C344.559 96.0791 345.138 95.516 345.525 94.8168C345.911 94.1177 346.162 93.3021 346.278 92.37C346.394 91.4378 346.452 90.4474 346.452 89.3988C346.452 88.1171 346.394 87.0684 346.278 86.2528C346.162 85.3983 345.892 84.6798 345.467 84.0972C345.042 83.4758 344.424 82.9126 343.612 82.4077C342.84 81.9028 341.777 81.359 340.425 80.7765C338.494 79.922 336.949 79.087 335.79 78.2713C334.67 77.4557 333.8 76.6207 333.182 75.7662C332.603 74.8729 332.216 73.9407 332.023 72.9698C331.83 71.9599 331.734 70.8724 331.734 69.7073C331.734 68.1925 331.907 66.7943 332.255 65.5126C332.641 64.2309 333.221 63.1434 333.993 62.2501C334.766 61.318 335.732 60.5995 336.891 60.0945C338.05 59.5508 339.421 59.2789 341.005 59.2789C342.743 59.2789 344.192 59.5508 345.351 60.0945C346.51 60.5995 347.437 61.2791 348.132 62.1336C348.828 62.9881 349.31 63.9396 349.581 64.9883C349.89 65.9981 350.044 66.9885 350.044 67.9595L346.452 68.8334C346.452 67.0079 346.027 65.532 345.177 64.4057C344.366 63.2405 342.917 62.6579 340.831 62.6579C339.672 62.6579 338.726 62.891 337.992 63.357C337.296 63.7843 336.736 64.3474 336.311 65.0466C335.925 65.7068 335.655 66.4448 335.5 67.2604C335.384 68.076 335.326 68.8722 335.326 69.649C335.326 70.5423 335.403 71.3385 335.558 72.0376C335.713 72.7367 336.022 73.397 336.485 74.0184C336.987 74.6399 337.702 75.2419 338.629 75.8245C339.556 76.407 340.812 77.0285 342.396 77.6887C344.134 78.3878 345.505 79.1258 346.51 79.9026C347.514 80.6405 348.267 81.4756 348.77 82.4077C349.31 83.301 349.658 84.3108 349.813 85.4372C349.967 86.5635 350.044 87.8646 350.044 89.3405Z" fill="white"/>
<g filter="url(#filter1_d)">
<path d="M178.344 20.0226C178.729 20.0257 179.074 20.2611 179.219 20.6187L185.812 37.035C185.955 37.3944 185.866 37.807 185.584 38.0733C185.302 38.3418 184.886 38.4107 184.534 38.2471L181.961 37.0524L181.936 42.6138C181.922 45.8211 183.157 48.8406 185.416 51.1199C186.774 52.4895 188.42 53.4395 190.198 54.0238L190.31 29.0404L187.731 30.2109C187.376 30.3717 186.962 30.2999 186.681 30.0295C186.404 29.7596 186.317 29.3479 186.465 28.9881L193.201 12.6292C193.349 12.2723 193.695 12.0403 194.081 12.0442C194.467 12.0442 194.812 12.2791 194.956 12.637L201.547 29.0549C201.692 29.4161 201.601 29.8272 201.322 30.0954C201.038 30.3619 200.624 30.4302 200.27 30.2672L197.698 29.073L197.588 54.0478C202.401 52.5012 205.926 48.0447 205.952 42.7201L205.976 37.1586L203.398 38.3296C203.041 38.4895 202.628 38.4172 202.347 38.1469C202.069 37.8772 201.983 37.466 202.131 37.106L208.867 20.7496C209.015 20.3934 209.361 20.1619 209.747 20.1618C210.133 20.1653 210.477 20.3994 210.622 20.7574L217.215 37.1744C217.358 37.5338 217.269 37.9466 216.988 38.2124C216.706 38.4813 216.289 38.549 215.938 38.3864L213.364 37.1916L213.34 42.7528C213.298 52.1817 206.496 60.0246 197.554 61.7152L197.373 102.564C197.365 104.605 195.704 106.251 193.663 106.242C192.643 106.238 191.721 105.82 191.055 105.149C190.39 104.477 189.981 103.552 189.985 102.531L190.166 61.6826C186.301 60.9165 182.845 59.0086 180.175 56.3148C176.679 52.787 174.525 47.9283 174.548 42.5808L174.573 37.0195L171.994 38.1898C171.638 38.3498 171.225 38.2789 170.944 38.0086C170.666 37.739 170.58 37.3265 170.727 36.9665L177.464 20.6109C177.611 20.2541 177.958 20.0234 178.344 20.0226Z" fill="white"/>
</g>
<defs>
<filter id="filter0_d" x="0" y="116" width="467.205" height="467.2" filterUnits="userSpaceOnUse" color-interpolation-filters="sRGB">
<feFlood flood-opacity="0" result="BackgroundImageFix"/>
<feColorMatrix in="SourceAlpha" type="matrix" values="0 0 0 0 0 0 0 0 0 0 0 0 0 0 0 0 0 0 127 0"/>
<feOffset/>
<feGaussianBlur stdDeviation="2"/>
<feColorMatrix type="matrix" values="0 0 0 0 0.270588 0 0 0 0 0.45098 0 0 0 0 0.87451 0 0 0 1 0"/>
<feBlend mode="normal" in2="BackgroundImageFix" result="effect1_dropShadow"/>
<feBlend mode="normal" in="SourceGraphic" in2="effect1_dropShadow" result="shape"/>
</filter>
<filter id="filter1_d" x="138" y="0" width="111.773" height="111.773" filterUnits="userSpaceOnUse" color-interpolation-filters="sRGB">
<feFlood flood-opacity="0" result="BackgroundImageFix"/>
<feColorMatrix in="SourceAlpha" type="matrix" values="0 0 0 0 0 0 0 0 0 0 0 0 0 0 0 0 0 0 127 0"/>
<feOffset/>
<feGaussianBlur stdDeviation="2"/>
<feColorMatrix type="matrix" values="0 0 0 0 0.270588 0 0 0 0 0.45098 0 0 0 0 0.87451 0 0 0 1 0"/>
<feBlend mode="normal" in2="BackgroundImageFix" result="effect1_dropShadow"/>
<feBlend mode="normal" in="SourceGraphic" in2="effect1_dropShadow" result="shape"/>
</filter>
</defs>
</svg>
