<svg width="28" height="28" viewBox="0 0 28 28" fill="none" xmlns="http://www.w3.org/2000/svg">
<path d="M27.1797 2.02087H23.5865C23.5996 1.62289 23.6068 1.22256 23.6068 0.820312C23.6068 0.367218 23.2394 0 22.7865 0H5.21347C4.76059 0 4.39316 0.367218 4.39316 0.820312C4.39316 1.22256 4.40042 1.62289 4.41345 2.02087H0.820312C0.367218 2.02087 0 2.38809 0 2.84119C0 6.51678 0.960663 9.98453 2.7049 12.6059C4.42905 15.1974 6.72571 16.6837 9.20673 16.8284C9.7692 17.4404 10.3637 17.9394 10.983 18.3201V21.966H9.60684C7.94315 21.966 6.58984 23.3195 6.58984 24.983V26.3592H6.53152C6.07843 26.3592 5.71121 26.7266 5.71121 27.1795C5.71121 27.6326 6.07843 27.9998 6.53152 27.9998H21.4685C21.9216 27.9998 22.2888 27.6326 22.2888 27.1795C22.2888 26.7266 21.9216 26.3592 21.4685 26.3592H21.4102V24.983C21.4102 23.3195 20.0569 21.966 18.3932 21.966H17.017V18.3201C17.6363 17.9396 18.231 17.4404 18.7935 16.8284C21.2743 16.6837 23.571 15.1974 25.2953 12.6059C27.0396 9.98453 28 6.51678 28 2.84119C28 2.38809 27.6328 2.02087 27.1797 2.02087ZM4.0708 11.6971C2.63205 9.53506 1.78674 6.70712 1.65793 3.6615H4.5051C4.80096 7.40546 5.67981 10.8661 7.05341 13.6131C7.27216 14.0506 7.50095 14.464 7.73828 14.8532C6.37387 14.338 5.11115 13.2609 4.0708 11.6971ZM19.7695 24.983V26.3594H8.23047V24.983C8.23047 24.2242 8.84784 23.6066 9.60684 23.6066H18.3932C19.1522 23.6066 19.7695 24.2242 19.7695 24.983ZM15.3764 21.966H12.6236V19.033C13.0746 19.1517 13.5341 19.2135 14 19.2135C14.4659 19.2135 14.9254 19.1517 15.3764 19.033V21.966ZM15.8844 17.0813C15.8474 17.0965 15.812 17.1148 15.778 17.1351C15.1982 17.4235 14.6024 17.5728 14 17.5728C13.3978 17.5728 12.8022 17.4235 12.2227 17.1356C12.1883 17.1148 12.1526 17.0965 12.1152 17.0809C11.472 16.7408 10.8497 16.2272 10.2612 15.5524C10.2302 15.5082 10.1954 15.4674 10.1567 15.4302C9.57245 14.7366 9.0228 13.8834 8.52078 12.8793C7.01324 9.86447 6.14252 5.90027 6.0434 1.64062H21.9566C21.8573 5.90027 20.9865 9.86469 19.4792 12.8793C18.9772 13.8834 18.4276 14.7366 17.8435 15.4302C17.8046 15.4674 17.7694 15.5084 17.7386 15.5526C17.1501 16.2277 16.5276 16.741 15.8844 17.0813ZM23.9292 11.6971C22.8889 13.2609 21.6261 14.338 20.2617 14.8532C20.4991 14.464 20.7278 14.0506 20.9466 13.6131C22.3202 10.8661 23.1988 7.40546 23.4949 3.6615H26.3421C26.2133 6.70712 25.368 9.53506 23.9292 11.6971Z" fill="white"/>
</svg>
