<svg width="32" height="32" viewBox="0 0 32 32" fill="none" xmlns="http://www.w3.org/2000/svg">
<path d="M10.9715 5.12218C11.0879 5.12311 11.192 5.19415 11.2357 5.30212L13.226 10.2578C13.2691 10.3663 13.2422 10.4909 13.1571 10.5712C13.0721 10.6523 12.9463 10.6731 12.8401 10.6237L12.0634 10.2631L12.0558 11.9419C12.0518 12.9101 12.4245 13.8217 13.1065 14.5097C13.5163 14.9232 14.0133 15.21 14.5498 15.3864L14.5838 7.84444L13.8053 8.19778C13.698 8.24633 13.5732 8.22464 13.4882 8.14303C13.4046 8.06153 13.3785 7.93727 13.4231 7.82866L15.4566 2.89028C15.5011 2.78254 15.6057 2.71248 15.7223 2.71368C15.8386 2.71368 15.9428 2.78459 15.9864 2.89262L17.9761 7.8488C18.0198 7.95786 17.9924 8.08195 17.908 8.16291C17.8223 8.24337 17.6974 8.26399 17.5904 8.21478L16.8141 7.85428L16.7807 15.3936C18.2338 14.9267 19.298 13.5814 19.3056 11.974L19.313 10.2951L18.5348 10.6486C18.4271 10.6969 18.3024 10.6751 18.2175 10.5935C18.1337 10.5121 18.1077 10.3879 18.1522 10.2793L20.1856 5.34165C20.2304 5.23411 20.3348 5.16421 20.4515 5.16418C20.5679 5.16524 20.6718 5.23593 20.7155 5.34399L22.7058 10.2999C22.749 10.4084 22.7222 10.533 22.6372 10.6133C22.5521 10.6944 22.4261 10.7148 22.3202 10.6658L21.5434 10.3051L21.5359 11.9839C21.5233 14.8302 19.4698 17.1979 16.7705 17.7082L16.716 30.0396C16.7134 30.6557 16.2121 31.1527 15.596 31.1498C15.288 31.1485 15.0097 31.0224 14.8088 30.8198C14.6079 30.6171 14.4844 30.3378 14.4858 30.0297L14.5403 17.6983C13.3736 17.4671 12.3304 16.8911 11.5244 16.0779C10.4688 15.013 9.81859 13.5463 9.8257 11.932L9.83319 10.2531L9.05473 10.6064C8.94713 10.6547 8.82253 10.6333 8.73774 10.5517C8.65381 10.4704 8.62772 10.3458 8.67228 10.2371L10.7059 5.29978C10.7504 5.19204 10.8551 5.1224 10.9715 5.12218Z" fill="white"/>
</svg>
