<svg width="19" height="14" viewBox="0 0 19 14" fill="none" xmlns="http://www.w3.org/2000/svg">
<path fill-rule="evenodd" clip-rule="evenodd" d="M9.08183 11.8616C7.51492 11.8174 6.12456 11.2216 4.84454 10.3829C3.56453 9.5443 2.5052 8.46291 1.55623 7.27117C1.42381 7.11668 1.42381 7.00634 1.55623 6.85185C2.39486 5.83667 3.29969 4.90976 4.33695 4.13734L3.43211 3.2325C2.19623 4.18148 1.13691 5.30701 0.187933 6.58702C-0.0768979 6.94013 -0.0548286 7.20496 0.210002 7.58014C1.53416 9.36774 3.10107 10.8685 5.04316 11.9719C6.30111 12.6781 7.64733 13.0974 9.1039 13.1195C10.2956 13.0974 11.4212 12.8105 12.4805 12.303L11.5094 11.3319C10.7591 11.6629 9.94253 11.8395 9.08183 11.8616Z" fill="#95959C"/>
<path fill-rule="evenodd" clip-rule="evenodd" d="M18.4706 6.62165C17.1465 4.81197 15.5575 3.28919 13.5933 2.2078C12.4016 1.54572 11.1436 1.12641 9.77535 1.08227C8.60568 1.03813 7.50222 1.30296 6.46497 1.76642L7.43601 2.73746C8.09809 2.4947 8.78223 2.36228 9.48845 2.34022C10.5257 2.31815 11.4967 2.60505 12.4457 3.04643C14.0568 3.79678 15.3589 4.92232 16.5506 6.2244C16.7713 6.46716 16.9478 6.70992 17.1685 6.95268C17.2568 7.06303 17.2789 7.15131 17.1906 7.28372C16.4182 8.25477 15.5575 9.13754 14.6085 9.88789L15.5133 10.7927C16.6389 9.88789 17.632 8.82857 18.4927 7.6589C18.7575 7.23958 18.7575 7.01889 18.4706 6.62165Z" fill="#95959C"/>
<path fill-rule="evenodd" clip-rule="evenodd" d="M11.489 6.21184L12.6366 7.35944C12.7028 7.07254 12.7469 6.78564 12.7469 6.49874C12.7469 4.71114 11.2904 3.25457 9.50276 3.2325C9.1938 3.2325 8.9069 3.27664 8.62 3.36491L9.78966 4.53458C10.6724 4.64493 11.3566 5.35114 11.489 6.21184Z" fill="#95959C"/>
<path fill-rule="evenodd" clip-rule="evenodd" d="M5.60814 5.38748C5.45366 5.76266 5.38745 6.13784 5.38745 6.55715C5.43159 8.36683 6.88816 9.8234 8.6537 9.80133C9.07301 9.80133 9.44819 9.71305 9.82337 9.58064L8.78611 8.54338C8.74197 8.54338 8.69784 8.54338 8.63163 8.54338C7.52817 8.54338 6.6454 7.63854 6.6454 6.51301C6.6454 6.49094 6.6454 6.4468 6.6454 6.42474L5.60814 5.38748Z" fill="#95959C"/>
<path fill-rule="evenodd" clip-rule="evenodd" d="M3.28695 0.198623C3.15454 0.0662077 3.02212 0 2.84557 0C2.58074 0 2.31591 0.198623 2.20556 0.441385C2.13935 0.5738 2.09522 0.838631 2.36005 1.10346L14.9616 13.705C15.094 13.8374 15.2264 13.9036 15.403 13.9036C15.6678 13.9036 15.9326 13.705 16.043 13.4622C16.1092 13.3298 16.1533 13.065 15.8885 12.8002L3.28695 0.198623Z" fill="#95959C"/>
</svg>
