<svg width="52" height="52" viewBox="0 0 52 52" fill="none" xmlns="http://www.w3.org/2000/svg">
<path d="M26 0C11.6636 0 0 11.6638 0 26.0002C0 40.3366 11.6636 52 26 52C40.3364 52 52 40.3366 52 26.0002C52 11.6638 40.3364 0 26 0ZM26 47.2727C14.2701 47.2727 4.72727 37.7299 4.72727 26.0002C4.72727 14.2704 14.2701 4.72727 26 4.72727C37.7299 4.72727 47.2727 14.2704 47.2727 26.0002C47.2727 37.7299 37.7298 47.2727 26 47.2727Z" fill="white"/>
<path d="M25.9996 11.0303C24.2622 11.0303 22.8488 12.4447 22.8488 14.1832C22.8488 15.9202 24.2622 17.3333 25.9996 17.3333C27.7371 17.3333 29.1505 15.9202 29.1505 14.1832C29.1505 12.4447 27.7371 11.0303 25.9996 11.0303Z" fill="white"/>
<path d="M26 22.0605C24.6946 22.0605 23.6364 23.1188 23.6364 24.4242V38.606C23.6364 39.9114 24.6946 40.9696 26 40.9696C27.3053 40.9696 28.3636 39.9114 28.3636 38.606V24.4242C28.3636 23.1188 27.3053 22.0605 26 22.0605Z" fill="white"/>
</svg>
