<svg width="488" height="636" viewBox="0 0 488 636" fill="none" xmlns="http://www.w3.org/2000/svg">
<g opacity="0.1" filter="url(#filter0_d)">
<path d="M233.475 198.948C235.252 199.626 236.442 201.309 236.496 203.213L238.719 290.499C238.762 292.407 237.639 294.163 235.877 294.909C234.112 295.666 232.066 295.267 230.72 293.904L220.876 283.947L211.183 309.628C205.597 324.44 206.109 340.533 212.633 354.966C216.554 363.639 222.532 370.868 229.747 376.632L273.292 261.266L259.349 262.24C257.427 262.371 255.638 261.327 254.803 259.592C253.986 257.866 254.295 255.813 255.598 254.403L314.928 190.337C316.224 188.94 318.227 188.463 320.007 189.147C321.788 189.81 322.981 191.491 323.033 193.395L325.245 280.686C325.293 282.606 324.165 284.351 322.41 285.11C320.638 285.854 318.607 285.458 317.247 284.093L307.41 274.141L263.888 389.47C288.815 390.605 312.796 376.063 322.083 351.478L331.773 325.796L317.833 326.773C315.908 326.898 314.122 325.852 313.286 324.118C312.466 322.392 312.776 320.342 314.079 318.931L373.402 254.875C374.702 253.483 376.7 253.008 378.489 253.673C380.267 254.354 381.456 256.029 381.508 257.934L383.733 345.224C383.775 347.133 382.654 348.89 380.892 349.634C379.126 350.392 377.08 349.987 375.737 348.63L365.892 338.673L356.2 364.353C339.769 407.893 294.798 432.456 250.527 424.877L179.344 613.511C175.789 622.936 165.272 627.689 155.85 624.131C151.137 622.354 147.592 618.835 145.671 614.584C143.749 610.332 143.449 605.348 145.229 600.635L216.411 412.002C199.855 401.803 187.156 387.027 179.445 369.969C169.346 347.629 167.751 321.447 177.069 296.753L186.761 271.072L172.818 272.044C170.894 272.171 169.107 271.132 168.273 269.398C167.452 267.672 167.762 265.615 169.065 264.204L228.391 200.154C229.688 198.757 231.69 198.288 233.475 198.948Z" fill="white"/>
</g>
<path d="M298.431 35.0441C298.431 36.8355 298.03 37.7312 296.16 37.7312H295.224V18.2945H296.16C298.03 18.2945 298.431 19.235 298.431 20.9816V35.0441ZM289.211 12.4276V43.5981H296.961C300.124 43.5981 302.752 42.5232 303.866 38.9852C304.489 37.0595 304.489 33.0736 304.489 27.9681C304.489 22.8178 304.489 18.5632 303.955 16.6374C303.108 13.5921 301.015 12.4276 297.362 12.4276H289.211Z" fill="white"/>
<path d="M326.151 43.5981V37.7312H317.999V30.7H325.126V24.8331H317.999V18.2497H326.151V12.4276H311.941V43.5981H326.151Z" fill="white"/>
<path d="M345.107 37.5073L346.309 33.8797L347.779 29.0429H347.957V43.5981H354.015V12.4276H348.358L345.329 20.6233L343.191 26.938H342.924L340.83 20.7577L337.757 12.4276H332.1V43.5981H338.113V28.9086H338.336L339.761 33.5214L341.053 37.5073H345.107Z" fill="white"/>
<path d="M370.587 36.2533C370.587 37.6864 369.786 38.1791 368.806 38.1791C367.826 38.1791 366.979 37.6864 366.979 36.2533V19.7724C366.979 18.4288 367.826 17.8466 368.806 17.8466C369.786 17.8466 370.587 18.4288 370.587 19.7724V36.2533ZM376.734 19.9963C376.734 14.6669 374.195 12.1589 368.806 12.1589C363.906 12.1589 360.921 14.6669 360.921 19.9963V35.9846C360.921 41.314 363.594 43.8668 368.806 43.8668C373.973 43.8668 376.734 41.314 376.734 35.9846V19.9963Z" fill="white"/>
<path d="M302.663 69.6033C302.663 70.917 302.544 72.1113 302.307 73.1861C302.069 74.2311 301.668 75.1268 301.104 75.8732C300.54 76.6196 299.797 77.2018 298.877 77.6198C297.956 78.0378 296.828 78.2468 295.491 78.2468C294.244 78.2468 293.175 78.0677 292.284 77.7094C291.393 77.3511 290.651 76.8734 290.057 76.2763C289.493 75.6493 289.062 74.9178 288.765 74.0818C288.498 73.2458 288.364 72.3352 288.364 71.3499L291.126 70.7677C291.126 71.3947 291.2 72.0068 291.349 72.6039C291.497 73.1712 291.735 73.6787 292.062 74.1266C292.418 74.5744 292.863 74.9327 293.398 75.2014C293.962 75.4701 294.66 75.6045 295.491 75.6045C296.501 75.6045 297.288 75.4403 297.852 75.1119C298.446 74.7834 298.892 74.3505 299.189 73.8131C299.486 73.2757 299.679 72.6487 299.768 71.9321C299.857 71.2156 299.901 70.4542 299.901 69.6481C299.901 68.6628 299.857 67.8567 299.768 67.2297C299.679 66.5728 299.471 66.0205 299.144 65.5726C298.817 65.0949 298.342 64.662 297.719 64.2739C297.125 63.8857 296.308 63.4677 295.269 63.0199C293.784 62.363 292.596 61.7211 291.705 61.0941C290.844 60.4671 290.176 59.8252 289.701 59.1684C289.255 58.4817 288.958 57.7651 288.81 57.0187C288.661 56.2424 288.587 55.4064 288.587 54.5107C288.587 53.3463 288.721 52.2715 288.988 51.2862C289.285 50.3009 289.73 49.4649 290.324 48.7782C290.918 48.0617 291.661 47.5093 292.552 47.1212C293.442 46.7032 294.497 46.4942 295.714 46.4942C297.05 46.4942 298.164 46.7032 299.055 47.1212C299.946 47.5093 300.659 48.0318 301.193 48.6886C301.728 49.3455 302.099 50.077 302.307 50.8831C302.544 51.6594 302.663 52.4207 302.663 53.1672L299.901 53.8389C299.901 52.4357 299.575 51.3011 298.921 50.4353C298.298 49.5396 297.184 49.0917 295.581 49.0917C294.69 49.0917 293.962 49.2709 293.398 49.6291C292.863 49.9576 292.433 50.3905 292.106 50.9279C291.809 51.4355 291.601 52.0027 291.482 52.6297C291.393 53.2567 291.349 53.8688 291.349 54.4659C291.349 55.1526 291.408 55.7647 291.527 56.3021C291.646 56.8395 291.883 57.3471 292.24 57.8248C292.626 58.3025 293.175 58.7653 293.888 59.2131C294.601 59.661 295.566 60.1387 296.783 60.6463C298.12 61.1837 299.174 61.751 299.946 62.3481C300.718 62.9154 301.297 63.5573 301.683 64.2739C302.099 64.9606 302.366 65.7368 302.485 66.6027C302.604 67.4685 302.663 68.4687 302.663 69.6033Z" fill="white"/>
<path d="M309.333 77.9333V46.7629H312.05V75.4254H321.672V77.9333H309.333Z" fill="white"/>
<path d="M341.045 70.2303C341.045 72.8577 340.451 74.8581 339.263 76.2315C338.105 77.575 336.338 78.2468 333.962 78.2468C331.587 78.2468 329.82 77.6049 328.662 76.3211C327.533 75.0372 326.969 73.2458 326.969 70.9468V54.5555C326.969 53.4508 327.088 52.4058 327.325 51.4205C327.563 50.4353 327.949 49.5844 328.483 48.8678C329.048 48.1214 329.775 47.5392 330.666 47.1212C331.587 46.7032 332.7 46.4942 334.007 46.4942C335.343 46.4942 336.457 46.6882 337.348 47.0764C338.268 47.4347 338.996 47.9721 339.53 48.6886C340.065 49.3754 340.451 50.2113 340.688 51.1966C340.926 52.152 341.045 53.2269 341.045 54.4211V70.2303ZM338.283 54.0181C338.283 53.3612 338.209 52.7342 338.06 52.1371C337.912 51.54 337.674 51.0175 337.348 50.5696C337.021 50.0919 336.576 49.7187 336.011 49.45C335.477 49.1514 334.809 49.0021 334.007 49.0021C333.146 49.0021 332.433 49.1962 331.869 49.5844C331.304 49.9426 330.859 50.4054 330.532 50.9727C330.206 51.54 329.968 52.167 329.82 52.8537C329.701 53.5105 329.641 54.1375 329.641 54.7346V70.9916C329.641 71.5888 329.716 72.171 329.864 72.7382C330.042 73.3055 330.295 73.8131 330.621 74.2609C330.978 74.7088 331.423 75.0671 331.958 75.3358C332.522 75.6045 333.19 75.7388 333.962 75.7388C335.536 75.7388 336.65 75.2313 337.303 74.2162C337.956 73.201 338.283 71.9769 338.283 70.5438V54.0181Z" fill="white"/>
<path d="M354.505 49.2709V77.9333H351.699V49.2709H346.131V46.7629H360.073V49.2709H354.505Z" fill="white"/>
<path d="M378.929 69.6033C378.929 70.917 378.81 72.1113 378.573 73.1861C378.335 74.2311 377.934 75.1268 377.37 75.8732C376.806 76.6196 376.064 77.2018 375.143 77.6198C374.222 78.0378 373.094 78.2468 371.758 78.2468C370.51 78.2468 369.441 78.0677 368.55 77.7094C367.66 77.3511 366.917 76.8734 366.323 76.2763C365.759 75.6493 365.328 74.9178 365.031 74.0818C364.764 73.2458 364.631 72.3352 364.631 71.3499L367.392 70.7677C367.392 71.3947 367.467 72.0068 367.615 72.6039C367.764 73.1712 368.001 73.6787 368.328 74.1266C368.684 74.5744 369.13 74.9327 369.664 75.2014C370.228 75.4701 370.926 75.6045 371.758 75.6045C372.767 75.6045 373.554 75.4403 374.118 75.1119C374.712 74.7834 375.158 74.3505 375.455 73.8131C375.752 73.2757 375.945 72.6487 376.034 71.9321C376.123 71.2156 376.168 70.4542 376.168 69.6481C376.168 68.6628 376.123 67.8567 376.034 67.2297C375.945 66.5728 375.737 66.0205 375.41 65.5726C375.084 65.0949 374.608 64.662 373.985 64.2739C373.391 63.8857 372.574 63.4677 371.535 63.0199C370.05 62.363 368.862 61.7211 367.971 61.0941C367.11 60.4671 366.442 59.8252 365.967 59.1684C365.521 58.4817 365.224 57.7651 365.076 57.0187C364.928 56.2424 364.853 55.4064 364.853 54.5107C364.853 53.3463 364.987 52.2715 365.254 51.2862C365.551 50.3009 365.997 49.4649 366.591 48.7782C367.184 48.0617 367.927 47.5093 368.818 47.1212C369.709 46.7032 370.763 46.4942 371.98 46.4942C373.317 46.4942 374.43 46.7032 375.321 47.1212C376.212 47.5093 376.925 48.0318 377.459 48.6886C377.994 49.3455 378.365 50.077 378.573 50.8831C378.81 51.6594 378.929 52.4207 378.929 53.1672L376.168 53.8389C376.168 52.4357 375.841 51.3011 375.188 50.4353C374.564 49.5396 373.45 49.0917 371.847 49.0917C370.956 49.0917 370.228 49.2709 369.664 49.6291C369.13 49.9576 368.699 50.3905 368.372 50.9279C368.075 51.4355 367.867 52.0027 367.749 52.6297C367.66 53.2567 367.615 53.8688 367.615 54.4659C367.615 55.1526 367.674 55.7647 367.793 56.3021C367.912 56.8395 368.15 57.3471 368.506 57.8248C368.892 58.3025 369.441 58.7653 370.154 59.2131C370.867 59.661 371.832 60.1387 373.049 60.6463C374.386 61.1837 375.44 61.751 376.212 62.3481C376.984 62.9154 377.563 63.5573 377.949 64.2739C378.365 64.9606 378.632 65.7368 378.751 66.6027C378.87 67.4685 378.929 68.4687 378.929 69.6033Z" fill="white"/>
<g filter="url(#filter1_d)">
<path d="M246.939 16.317C247.235 16.3193 247.5 16.5002 247.611 16.7752L252.68 29.3948C252.789 29.671 252.721 29.9883 252.504 30.1929C252.288 30.3993 251.967 30.4523 251.697 30.3266L249.719 29.4082L249.7 33.6834C249.689 36.1489 250.639 38.47 252.375 40.2222C253.419 41.2751 254.684 42.0054 256.051 42.4546L256.137 23.2492L254.155 24.1489C253.882 24.2726 253.564 24.2173 253.347 24.0095C253.134 23.802 253.068 23.4855 253.181 23.209L258.36 10.6334C258.473 10.3591 258.74 10.1807 259.036 10.1837C259.333 10.1837 259.598 10.3643 259.709 10.6394L264.776 23.2603C264.887 23.538 264.817 23.854 264.602 24.0601C264.384 24.265 264.066 24.3175 263.793 24.1922L261.817 23.2742L261.732 42.473C265.432 41.2841 268.142 37.8583 268.161 33.7651L268.18 29.4898L266.198 30.39C265.924 30.5129 265.607 30.4573 265.39 30.2495C265.177 30.0422 265.111 29.7261 265.224 29.4494L270.402 16.8758C270.516 16.602 270.782 16.424 271.079 16.4239C271.376 16.4266 271.64 16.6066 271.752 16.8818L276.82 29.5019C276.93 29.7782 276.862 30.0956 276.645 30.2999C276.428 30.5066 276.108 30.5586 275.838 30.4336L273.86 29.5152L273.841 33.7902C273.809 41.0384 268.58 47.0675 261.706 48.3671L261.567 79.769C261.56 81.3378 260.284 82.6032 258.715 82.5959C257.93 82.5926 257.222 82.2716 256.71 81.7556C256.199 81.2394 255.884 80.5282 255.888 79.7436L256.027 48.342C253.056 47.7531 250.399 46.2865 248.346 44.2156C245.658 41.5037 244.003 37.7688 244.021 33.658L244.04 29.3829L242.058 30.2826C241.784 30.4055 241.466 30.351 241.25 30.1432C241.037 29.936 240.97 29.6188 241.084 29.3421L246.262 16.7692C246.376 16.4949 246.642 16.3175 246.939 16.317Z" fill="white"/>
</g>
<defs>
<filter id="filter0_d" x="0.000244141" y="148" width="487.205" height="487.2" filterUnits="userSpaceOnUse" color-interpolation-filters="sRGB">
<feFlood flood-opacity="0" result="BackgroundImageFix"/>
<feColorMatrix in="SourceAlpha" type="matrix" values="0 0 0 0 0 0 0 0 0 0 0 0 0 0 0 0 0 0 127 0"/>
<feOffset/>
<feGaussianBlur stdDeviation="2"/>
<feColorMatrix type="matrix" values="0 0 0 0 0.270588 0 0 0 0 0.45098 0 0 0 0 0.87451 0 0 0 1 0"/>
<feBlend mode="normal" in2="BackgroundImageFix" result="effect1_dropShadow"/>
<feBlend mode="normal" in="SourceGraphic" in2="effect1_dropShadow" result="shape"/>
</filter>
<filter id="filter1_d" x="215" y="0" width="87.7728" height="87.7728" filterUnits="userSpaceOnUse" color-interpolation-filters="sRGB">
<feFlood flood-opacity="0" result="BackgroundImageFix"/>
<feColorMatrix in="SourceAlpha" type="matrix" values="0 0 0 0 0 0 0 0 0 0 0 0 0 0 0 0 0 0 127 0"/>
<feOffset/>
<feGaussianBlur stdDeviation="2"/>
<feColorMatrix type="matrix" values="0 0 0 0 0.270588 0 0 0 0 0.45098 0 0 0 0 0.87451 0 0 0 1 0"/>
<feBlend mode="normal" in2="BackgroundImageFix" result="effect1_dropShadow"/>
<feBlend mode="normal" in="SourceGraphic" in2="effect1_dropShadow" result="shape"/>
</filter>
</defs>
</svg>
