<svg width="17" height="17" viewBox="0 0 17 17" fill="none" xmlns="http://www.w3.org/2000/svg">
<path d="M16.9535 4.99805C16.9137 4.09477 16.7676 3.47378 16.5583 2.93568C16.3425 2.3645 16.0104 1.85312 15.5753 1.42801C15.1502 0.996288 14.6354 0.660819 14.0709 0.44833C13.5297 0.239083 12.9119 0.0930128 12.0086 0.0531873C11.0986 0.00998882 10.8097 0 8.50165 0C6.19358 0 5.90469 0.00998882 4.99804 0.0498144C4.09476 0.08964 3.47377 0.23584 2.9358 0.444957C2.36449 0.660819 1.85312 0.992916 1.42801 1.42801C0.996287 1.85312 0.660948 2.36787 0.448329 2.93243C0.239083 3.47378 0.0930127 4.0914 0.0531872 4.99467C0.0099888 5.90469 0 6.19359 0 8.50166C0 10.8097 0.0099888 11.0986 0.0498143 12.0053C0.0896399 12.9085 0.23584 13.5295 0.445086 14.0676C0.660948 14.6388 0.996287 15.1502 1.42801 15.5753C1.85312 16.007 2.36787 16.3425 2.93243 16.555C3.47377 16.7642 4.09139 16.9103 4.99479 16.9501C5.90131 16.9901 6.19034 16.9999 8.4984 16.9999C10.8065 16.9999 11.0954 16.9901 12.002 16.9501C12.9053 16.9103 13.5263 16.7642 14.0642 16.555C15.2067 16.1133 16.11 15.21 16.5517 14.0676C16.7608 13.5263 16.907 12.9085 16.9469 12.0053C16.9867 11.0986 16.9967 10.8097 16.9967 8.50166C16.9967 6.19359 16.9933 5.90469 16.9535 4.99805ZM15.4226 11.9389C15.386 12.7691 15.2466 13.2174 15.1303 13.5163C14.8447 14.2569 14.2569 14.8447 13.5163 15.1304C13.2174 15.2466 12.7658 15.386 11.9388 15.4225C11.0422 15.4624 10.7733 15.4723 8.50502 15.4723C6.23678 15.4723 5.96449 15.4624 5.07107 15.4225C4.24083 15.386 3.79251 15.2466 3.49362 15.1304C3.12507 14.9941 2.7896 14.7783 2.51731 14.496C2.23503 14.2203 2.01917 13.8882 1.88296 13.5197C1.76672 13.2208 1.62727 12.7691 1.59082 11.9422C1.55086 11.0456 1.541 10.7765 1.541 8.50828C1.541 6.24003 1.55086 5.96774 1.59082 5.07445C1.62727 4.24421 1.76672 3.79588 1.88296 3.497C2.01917 3.12832 2.23503 2.79298 2.52068 2.52056C2.79622 2.23828 3.12831 2.02241 3.49699 1.88633C3.79588 1.7701 4.24758 1.63064 5.07445 1.59406C5.9711 1.55424 6.24015 1.54425 8.50826 1.54425C10.7799 1.54425 11.0488 1.55424 11.9422 1.59406C12.7724 1.63064 13.2208 1.7701 13.5197 1.88633C13.8882 2.02241 14.2237 2.23828 14.496 2.52056C14.7783 2.79622 14.9941 3.12832 15.1303 3.497C15.2466 3.79588 15.386 4.24746 15.4226 5.07445C15.4624 5.97111 15.4724 6.24003 15.4724 8.50828C15.4724 10.7765 15.4624 11.0422 15.4226 11.9389Z" fill="white"/>
<path d="M8.50183 4.13477C6.09089 4.13477 4.13477 6.09076 4.13477 8.50183C4.13477 10.9129 6.09089 12.8689 8.50183 12.8689C10.9129 12.8689 12.8689 10.9129 12.8689 8.50183C12.8689 6.09076 10.9129 4.13477 8.50183 4.13477ZM8.50183 11.3346C6.93773 11.3346 5.66902 10.0661 5.66902 8.50183C5.66902 6.9376 6.93773 5.66902 8.50183 5.66902C10.0661 5.66902 11.3346 6.9376 11.3346 8.50183C11.3346 10.0661 10.0661 11.3346 8.50183 11.3346Z" fill="white"/>
<path d="M14.0611 3.96189C14.0611 4.5249 13.6046 4.98141 13.0415 4.98141C12.4785 4.98141 12.022 4.5249 12.022 3.96189C12.022 3.39876 12.4785 2.94238 13.0415 2.94238C13.6046 2.94238 14.0611 3.39876 14.0611 3.96189Z" fill="white"/>
</svg>
