<svg width="113" height="63" viewBox="0 0 113 63" fill="none" xmlns="http://www.w3.org/2000/svg">
<path d="M57.7701 25.27C57.7701 26.47 57.5001 27.07 56.2401 27.07H55.6101V14.05H56.2401C57.5001 14.05 57.7701 14.68 57.7701 15.85V25.27ZM51.5601 10.12V31H56.7801C58.9101 31 60.6801 30.28 61.4301 27.91C61.8501 26.62 61.8501 23.95 61.8501 20.53C61.8501 17.08 61.8501 14.23 61.4901 12.94C60.9201 10.9 59.5101 10.12 57.0501 10.12H51.5601ZM76.4387 31V27.07H70.9487V22.36H75.7487V18.43H70.9487V14.02H76.4387V10.12H66.8687V31H76.4387ZM89.2054 26.92L90.0154 24.49L91.0054 21.25H91.1254V31H95.2054V10.12H91.3954L89.3554 15.61L87.9154 19.84H87.7354L86.3254 15.7L84.2554 10.12H80.4454V31H84.4954V21.16H84.6454L85.6054 24.25L86.4754 26.92H89.2054ZM106.366 26.08C106.366 27.04 105.826 27.37 105.166 27.37C104.506 27.37 103.936 27.04 103.936 26.08V15.04C103.936 14.14 104.506 13.75 105.166 13.75C105.826 13.75 106.366 14.14 106.366 15.04V26.08ZM110.506 15.19C110.506 11.62 108.796 9.94 105.166 9.94C101.866 9.94 99.8563 11.62 99.8563 15.19V25.9C99.8563 29.47 101.656 31.18 105.166 31.18C108.646 31.18 110.506 29.47 110.506 25.9V15.19ZM60.6201 48.42C60.6201 49.3 60.5401 50.1 60.3801 50.82C60.2201 51.52 59.9501 52.12 59.5701 52.62C59.1901 53.12 58.6901 53.51 58.0701 53.79C57.4501 54.07 56.6901 54.21 55.7901 54.21C54.9501 54.21 54.2301 54.09 53.6301 53.85C53.0301 53.61 52.5301 53.29 52.1301 52.89C51.7501 52.47 51.4601 51.98 51.2601 51.42C51.0801 50.86 50.9901 50.25 50.9901 49.59L52.8501 49.2C52.8501 49.62 52.9001 50.03 53.0001 50.43C53.1001 50.81 53.2601 51.15 53.4801 51.45C53.7201 51.75 54.0201 51.99 54.3801 52.17C54.7601 52.35 55.2301 52.44 55.7901 52.44C56.4701 52.44 57.0001 52.33 57.3801 52.11C57.7801 51.89 58.0801 51.6 58.2801 51.24C58.4801 50.88 58.6101 50.46 58.6701 49.98C58.7301 49.5 58.7601 48.99 58.7601 48.45C58.7601 47.79 58.7301 47.25 58.6701 46.83C58.6101 46.39 58.4701 46.02 58.2501 45.72C58.0301 45.4 57.7101 45.11 57.2901 44.85C56.8901 44.59 56.3401 44.31 55.6401 44.01C54.6401 43.57 53.8401 43.14 53.2401 42.72C52.6601 42.3 52.2101 41.87 51.8901 41.43C51.5901 40.97 51.3901 40.49 51.2901 39.99C51.1901 39.47 51.1401 38.91 51.1401 38.31C51.1401 37.53 51.2301 36.81 51.4101 36.15C51.6101 35.49 51.9101 34.93 52.3101 34.47C52.7101 33.99 53.2101 33.62 53.8101 33.36C54.4101 33.08 55.1201 32.94 55.9401 32.94C56.8401 32.94 57.5901 33.08 58.1901 33.36C58.7901 33.62 59.2701 33.97 59.6301 34.41C59.9901 34.85 60.2401 35.34 60.3801 35.88C60.5401 36.4 60.6201 36.91 60.6201 37.41L58.7601 37.86C58.7601 36.92 58.5401 36.16 58.1001 35.58C57.6801 34.98 56.9301 34.68 55.8501 34.68C55.2501 34.68 54.7601 34.8 54.3801 35.04C54.0201 35.26 53.7301 35.55 53.5101 35.91C53.3101 36.25 53.1701 36.63 53.0901 37.05C53.0301 37.47 53.0001 37.88 53.0001 38.28C53.0001 38.74 53.0401 39.15 53.1201 39.51C53.2001 39.87 53.3601 40.21 53.6001 40.53C53.8601 40.85 54.2301 41.16 54.7101 41.46C55.1901 41.76 55.8401 42.08 56.6601 42.42C57.5601 42.78 58.2701 43.16 58.7901 43.56C59.3101 43.94 59.7001 44.37 59.9601 44.85C60.2401 45.31 60.4201 45.83 60.5001 46.41C60.5801 46.99 60.6201 47.66 60.6201 48.42ZM65.1123 54V33.12H66.9423V52.32H73.4223V54H65.1123ZM86.4697 48.84C86.4697 50.6 86.0697 51.94 85.2697 52.86C84.4897 53.76 83.2997 54.21 81.6997 54.21C80.0997 54.21 78.9097 53.78 78.1297 52.92C77.3697 52.06 76.9897 50.86 76.9897 49.32V38.34C76.9897 37.6 77.0697 36.9 77.2297 36.24C77.3897 35.58 77.6497 35.01 78.0097 34.53C78.3897 34.03 78.8797 33.64 79.4797 33.36C80.0997 33.08 80.8497 32.94 81.7297 32.94C82.6297 32.94 83.3797 33.07 83.9797 33.33C84.5997 33.57 85.0897 33.93 85.4497 34.41C85.8097 34.87 86.0697 35.43 86.2297 36.09C86.3897 36.73 86.4697 37.45 86.4697 38.25V48.84ZM84.6097 37.98C84.6097 37.54 84.5597 37.12 84.4597 36.72C84.3597 36.32 84.1997 35.97 83.9797 35.67C83.7597 35.35 83.4597 35.1 83.0797 34.92C82.7197 34.72 82.2697 34.62 81.7297 34.62C81.1497 34.62 80.6697 34.75 80.2897 35.01C79.9097 35.25 79.6097 35.56 79.3897 35.94C79.1697 36.32 79.0097 36.74 78.9097 37.2C78.8297 37.64 78.7897 38.06 78.7897 38.46V49.35C78.7897 49.75 78.8397 50.14 78.9397 50.52C79.0597 50.9 79.2297 51.24 79.4497 51.54C79.6897 51.84 79.9897 52.08 80.3497 52.26C80.7297 52.44 81.1797 52.53 81.6997 52.53C82.7597 52.53 83.5097 52.19 83.9497 51.51C84.3897 50.83 84.6097 50.01 84.6097 49.05V37.98ZM95.5351 34.8V54H93.6451V34.8H89.8951V33.12H99.2851V34.8H95.5351ZM111.985 48.42C111.985 49.3 111.905 50.1 111.745 50.82C111.585 51.52 111.315 52.12 110.935 52.62C110.555 53.12 110.055 53.51 109.435 53.79C108.815 54.07 108.055 54.21 107.155 54.21C106.315 54.21 105.595 54.09 104.995 53.85C104.395 53.61 103.895 53.29 103.495 52.89C103.115 52.47 102.825 51.98 102.625 51.42C102.445 50.86 102.355 50.25 102.355 49.59L104.215 49.2C104.215 49.62 104.265 50.03 104.365 50.43C104.465 50.81 104.625 51.15 104.845 51.45C105.085 51.75 105.385 51.99 105.745 52.17C106.125 52.35 106.595 52.44 107.155 52.44C107.835 52.44 108.365 52.33 108.745 52.11C109.145 51.89 109.445 51.6 109.645 51.24C109.845 50.88 109.975 50.46 110.035 49.98C110.095 49.5 110.125 48.99 110.125 48.45C110.125 47.79 110.095 47.25 110.035 46.83C109.975 46.39 109.835 46.02 109.615 45.72C109.395 45.4 109.075 45.11 108.655 44.85C108.255 44.59 107.705 44.31 107.005 44.01C106.005 43.57 105.205 43.14 104.605 42.72C104.025 42.3 103.575 41.87 103.255 41.43C102.955 40.97 102.755 40.49 102.655 39.99C102.555 39.47 102.505 38.91 102.505 38.31C102.505 37.53 102.595 36.81 102.775 36.15C102.975 35.49 103.275 34.93 103.675 34.47C104.075 33.99 104.575 33.62 105.175 33.36C105.775 33.08 106.485 32.94 107.305 32.94C108.205 32.94 108.955 33.08 109.555 33.36C110.155 33.62 110.635 33.97 110.995 34.41C111.355 34.85 111.605 35.34 111.745 35.88C111.905 36.4 111.985 36.91 111.985 37.41L110.125 37.86C110.125 36.92 109.905 36.16 109.465 35.58C109.045 34.98 108.295 34.68 107.215 34.68C106.615 34.68 106.125 34.8 105.745 35.04C105.385 35.26 105.095 35.55 104.875 35.91C104.675 36.25 104.535 36.63 104.455 37.05C104.395 37.47 104.365 37.88 104.365 38.28C104.365 38.74 104.405 39.15 104.485 39.51C104.565 39.87 104.725 40.21 104.965 40.53C105.225 40.85 105.595 41.16 106.075 41.46C106.555 41.76 107.205 42.08 108.025 42.42C108.925 42.78 109.635 43.16 110.155 43.56C110.675 43.94 111.065 44.37 111.325 44.85C111.605 45.31 111.785 45.83 111.865 46.41C111.945 46.99 111.985 47.66 111.985 48.42Z" fill="white"/>
<g filter="url(#filter0_d)">
<path d="M23.1871 12.657C23.3868 12.6586 23.5655 12.7806 23.6406 12.9659L27.0568 21.4725C27.1309 21.6587 27.0847 21.8725 26.9387 22.0105C26.7928 22.1496 26.5768 22.1853 26.3945 22.1005L25.0612 21.4815L25.0483 24.3633C25.0413 26.0252 25.6811 27.5898 26.8518 28.7709C27.5553 29.4807 28.4083 29.9729 29.3293 30.2757L29.3875 17.3298L28.0513 17.9363C27.8671 18.0197 27.6528 17.9825 27.507 17.8424C27.3634 17.7025 27.3187 17.4892 27.3951 17.3027L30.8857 8.82591C30.9621 8.64097 31.1417 8.52072 31.3418 8.52277C31.5414 8.52276 31.7203 8.64449 31.7952 8.82993L35.2105 17.3373C35.2855 17.5245 35.2385 17.7375 35.0936 17.8765C34.9465 18.0146 34.7322 18.05 34.5484 17.9655L33.2159 17.3467L33.1587 30.2881C35.6528 29.4867 37.4795 27.1775 37.4927 24.4183L37.5053 21.5365L36.1695 22.1433C35.9847 22.2261 35.7707 22.1887 35.6249 22.0486C35.481 21.9089 35.4364 21.6958 35.5129 21.5093L39.0032 13.0337C39.08 12.8491 39.2592 12.7292 39.4596 12.7291C39.6594 12.7309 39.8378 12.8523 39.9128 13.0378L43.3292 21.5447C43.4033 21.7309 43.3574 21.9448 43.2113 22.0826C43.0653 22.2219 42.8491 22.2569 42.6673 22.1727L41.3339 21.5536L41.3211 24.4353C41.2994 29.3211 37.7746 33.3852 33.1412 34.2612L33.0476 55.4284C33.0431 56.4859 32.1825 57.3389 31.1251 57.3339C30.5963 57.3317 30.1186 57.1153 29.7738 56.7675C29.429 56.4196 29.2169 55.9401 29.2194 55.4113L29.3129 34.2443C27.3103 33.8473 25.5196 32.8587 24.136 31.4628C22.3241 29.6348 21.208 27.1171 21.2202 24.3462L21.2331 21.4644L19.8968 22.0709C19.7121 22.1538 19.4982 22.117 19.3527 21.977C19.2086 21.8373 19.1638 21.6235 19.2403 21.4369L22.7311 12.9619C22.8075 12.7769 22.9872 12.6574 23.1871 12.657Z" fill="#4573DF"/>
</g>
<defs>
<filter id="filter0_d" x="0.354492" y="0.354462" width="61.7728" height="61.7728" filterUnits="userSpaceOnUse" color-interpolation-filters="sRGB">
<feFlood flood-opacity="0" result="BackgroundImageFix"/>
<feColorMatrix in="SourceAlpha" type="matrix" values="0 0 0 0 0 0 0 0 0 0 0 0 0 0 0 0 0 0 127 0"/>
<feOffset/>
<feGaussianBlur stdDeviation="2"/>
<feColorMatrix type="matrix" values="0 0 0 0 0.270588 0 0 0 0 0.45098 0 0 0 0 0.87451 0 0 0 1 0"/>
<feBlend mode="normal" in2="BackgroundImageFix" result="effect1_dropShadow"/>
<feBlend mode="normal" in="SourceGraphic" in2="effect1_dropShadow" result="shape"/>
</filter>
</defs>
</svg>
