<svg width="112" height="112" viewBox="0 0 112 112" fill="none" xmlns="http://www.w3.org/2000/svg">
<circle cx="56" cy="56" r="56" fill="#4573DF"/>
<path d="M45.9498 60.4274C45.9498 61.3219 45.7506 61.7691 44.8211 61.7691H44.3563V52.0637H44.8211C45.7506 52.0637 45.9498 52.5333 45.9498 53.4055V60.4274ZM41.3683 49.1342V64.6987H45.2195C46.7909 64.6987 48.0968 64.162 48.6501 62.3953C48.96 61.4337 48.96 59.4434 48.96 56.8941C48.96 54.3223 48.96 52.1979 48.6944 51.2363C48.2738 49.7156 47.2336 49.1342 45.4187 49.1342H41.3683Z" fill="white"/>
<path d="M59.7231 64.6987V61.7691H55.6727V58.2582H59.214V55.3287H55.6727V52.0413H59.7231V49.1342H52.6626V64.6987H59.7231Z" fill="white"/>
<path d="M69.1419 61.6573L69.7395 59.8459L70.4699 57.4308H70.5585V64.6987H73.5686V49.1342H70.7577L69.2526 53.2266L68.1902 56.3797H68.0574L67.0172 53.2937L65.49 49.1342H62.6791V64.6987H65.667V57.3637H65.7777L66.486 59.667L67.1278 61.6573H69.1419Z" fill="white"/>
<path d="M81.8028 61.0312C81.8028 61.7468 81.4044 61.9928 80.9175 61.9928C80.4305 61.9928 80.01 61.7468 80.01 61.0312V52.8017C80.01 52.1308 80.4305 51.8401 80.9175 51.8401C81.4044 51.8401 81.8028 52.1308 81.8028 52.8017V61.0312ZM84.8572 52.9135C84.8572 50.2523 83.5956 49 80.9175 49C78.4828 49 76.9999 50.2523 76.9999 52.9135V60.897C76.9999 63.5582 78.3279 64.8328 80.9175 64.8328C83.4849 64.8328 84.8572 63.5582 84.8572 60.897V52.9135Z" fill="white"/>
<path d="M48.0525 77.684C48.0525 78.34 47.9935 78.9363 47.8754 79.473C47.7574 79.9948 47.5582 80.4421 47.2778 80.8148C46.9975 81.1875 46.6286 81.4782 46.1712 81.6869C45.7138 81.8956 45.1531 82 44.4891 82C43.8693 82 43.3381 81.9105 42.8955 81.7316C42.4528 81.5527 42.0839 81.3142 41.7888 81.016C41.5085 80.703 41.2945 80.3377 41.147 79.9203C41.0142 79.5028 40.9478 79.0481 40.9478 78.5561L42.32 78.2654C42.32 78.5785 42.3569 78.8841 42.4307 79.1823C42.5045 79.4656 42.6225 79.719 42.7848 79.9426C42.9619 80.1663 43.1832 80.3452 43.4488 80.4793C43.7292 80.6135 44.0759 80.6806 44.4891 80.6806C44.9907 80.6806 45.3818 80.5986 45.6621 80.4346C45.9572 80.2706 46.1786 80.0544 46.3261 79.7861C46.4737 79.5177 46.5696 79.2047 46.6138 78.8468C46.6581 78.489 46.6802 78.1089 46.6802 77.7063C46.6802 77.2144 46.6581 76.8118 46.6138 76.4988C46.5696 76.1708 46.4663 75.895 46.304 75.6713C46.1417 75.4328 45.9056 75.2166 45.5957 75.0228C45.3006 74.829 44.8948 74.6203 44.3784 74.3967C43.6406 74.0687 43.0504 73.7481 42.6077 73.4351C42.1798 73.122 41.8478 72.8014 41.6117 72.4735C41.3904 72.1306 41.2429 71.7728 41.1691 71.4C41.0953 71.0124 41.0584 70.595 41.0584 70.1477C41.0584 69.5663 41.1248 69.0296 41.2576 68.5376C41.4052 68.0456 41.6265 67.6282 41.9216 67.2853C42.2167 66.9275 42.5856 66.6517 43.0283 66.4579C43.4709 66.2492 43.9948 66.1448 44.5997 66.1448C45.2637 66.1448 45.8171 66.2492 46.2597 66.4579C46.7024 66.6517 47.0565 66.9126 47.3221 67.2406C47.5877 67.5686 47.7721 67.9338 47.8754 68.3363C47.9935 68.724 48.0525 69.1041 48.0525 69.4768L46.6802 69.8123C46.6802 69.1116 46.5179 68.5451 46.1933 68.1127C45.8834 67.6655 45.3301 67.4418 44.5333 67.4418C44.0907 67.4418 43.7292 67.5313 43.4488 67.7102C43.1832 67.8742 42.9692 68.0904 42.8069 68.3587C42.6594 68.6122 42.5561 68.8954 42.4971 69.2085C42.4528 69.5216 42.4307 69.8272 42.4307 70.1254C42.4307 70.4683 42.4602 70.7739 42.5192 71.0422C42.5782 71.3106 42.6963 71.564 42.8733 71.8026C43.0652 72.0411 43.3381 72.2722 43.6923 72.4958C44.0464 72.7194 44.5259 72.958 45.1309 73.2114C45.7949 73.4798 46.3187 73.763 46.7024 74.0612C47.086 74.3445 47.3737 74.665 47.5656 75.0228C47.7721 75.3657 47.9049 75.7533 47.964 76.1857C48.023 76.618 48.0525 77.1175 48.0525 77.684Z" fill="white"/>
<path d="M51.3668 81.8435V66.279H52.7169V80.5911H57.4977V81.8435H51.3668Z" fill="white"/>
<path d="M67.1237 77.9971C67.1237 79.309 66.8286 80.3079 66.2383 80.9937C65.6629 81.6646 64.7849 82 63.6045 82C62.4241 82 61.5461 81.6795 60.9707 81.0384C60.4099 80.3973 60.1296 79.5028 60.1296 78.3549V70.1701C60.1296 69.6185 60.1886 69.0967 60.3067 68.6047C60.4247 68.1127 60.6165 67.6878 60.8821 67.33C61.1625 66.9573 61.524 66.6666 61.9666 66.4579C62.4241 66.2492 62.9774 66.1448 63.6266 66.1448C64.2906 66.1448 64.844 66.2417 65.2866 66.4355C65.744 66.6144 66.1055 66.8828 66.3711 67.2406C66.6367 67.5835 66.8286 68.0009 66.9466 68.4929C67.0647 68.97 67.1237 69.5067 67.1237 70.103V77.9971ZM65.7514 69.9017C65.7514 69.5738 65.7145 69.2607 65.6408 68.9625C65.567 68.6643 65.4489 68.4034 65.2866 68.1798C65.1243 67.9413 64.903 67.7549 64.6226 67.6207C64.357 67.4717 64.025 67.3971 63.6266 67.3971C63.1987 67.3971 62.8446 67.494 62.5642 67.6878C62.2839 67.8667 62.0626 68.0978 61.9002 68.3811C61.7379 68.6643 61.6199 68.9774 61.5461 69.3203C61.4871 69.6483 61.4576 69.9614 61.4576 70.2595V78.3772C61.4576 78.6754 61.4945 78.9661 61.5683 79.2494C61.6568 79.5326 61.7822 79.7861 61.9445 80.0097C62.1216 80.2333 62.3429 80.4122 62.6085 80.5464C62.8889 80.6806 63.2209 80.7477 63.6045 80.7477C64.3865 80.7477 64.9399 80.4942 65.2645 79.9873C65.5891 79.4805 65.7514 78.8692 65.7514 78.1536V69.9017Z" fill="white"/>
<path d="M73.8119 67.5313V81.8435H72.4175V67.5313H69.6508V66.279H76.5785V67.5313H73.8119Z" fill="white"/>
<path d="M85.9478 77.684C85.9478 78.34 85.8887 78.9363 85.7707 79.473C85.6526 79.9948 85.4534 80.4421 85.1731 80.8148C84.8927 81.1875 84.5239 81.4782 84.0664 81.6869C83.609 81.8956 83.0483 82 82.3843 82C81.7646 82 81.2334 81.9105 80.7907 81.7316C80.3481 81.5527 79.9792 81.3142 79.6841 81.016C79.4037 80.703 79.1898 80.3377 79.0422 79.9203C78.9094 79.5028 78.843 79.0481 78.843 78.5561L80.2153 78.2654C80.2153 78.5785 80.2522 78.8841 80.3259 79.1823C80.3997 79.4656 80.5178 79.719 80.6801 79.9426C80.8571 80.1663 81.0785 80.3452 81.3441 80.4793C81.6244 80.6135 81.9712 80.6806 82.3843 80.6806C82.886 80.6806 83.277 80.5986 83.5574 80.4346C83.8525 80.2706 84.0738 80.0544 84.2214 79.7861C84.3689 79.5177 84.4648 79.2047 84.5091 78.8468C84.5534 78.489 84.5755 78.1089 84.5755 77.7063C84.5755 77.2144 84.5534 76.8118 84.5091 76.4988C84.4648 76.1708 84.3615 75.895 84.1992 75.6713C84.0369 75.4328 83.8008 75.2166 83.491 75.0228C83.1959 74.829 82.7901 74.6203 82.2736 74.3967C81.5359 74.0687 80.9457 73.7481 80.503 73.4351C80.0751 73.122 79.7431 72.8014 79.507 72.4735C79.2857 72.1306 79.1381 71.7728 79.0643 71.4C78.9906 71.0124 78.9537 70.595 78.9537 70.1477C78.9537 69.5663 79.0201 69.0296 79.1529 68.5376C79.3004 68.0456 79.5218 67.6282 79.8169 67.2853C80.112 66.9275 80.4809 66.6517 80.9235 66.4579C81.3662 66.2492 81.89 66.1448 82.495 66.1448C83.159 66.1448 83.7123 66.2492 84.155 66.4579C84.5976 66.6517 84.9518 66.9126 85.2174 67.2406C85.483 67.5686 85.6674 67.9338 85.7707 68.3363C85.8887 68.724 85.9478 69.1041 85.9478 69.4768L84.5755 69.8123C84.5755 69.1116 84.4132 68.5451 84.0886 68.1127C83.7787 67.6655 83.2254 67.4418 82.4286 67.4418C81.9859 67.4418 81.6244 67.5313 81.3441 67.7102C81.0785 67.8742 80.8645 68.0904 80.7022 68.3587C80.5546 68.6122 80.4514 68.8954 80.3923 69.2085C80.3481 69.5216 80.3259 69.8272 80.3259 70.1254C80.3259 70.4683 80.3554 70.7739 80.4145 71.0422C80.4735 71.3106 80.5915 71.564 80.7686 71.8026C80.9604 72.0411 81.2334 72.2722 81.5875 72.4958C81.9417 72.7194 82.4212 72.958 83.0262 73.2114C83.6902 73.4798 84.214 73.763 84.5976 74.0612C84.9813 74.3445 85.269 74.665 85.4608 75.0228C85.6674 75.3657 85.8002 75.7533 85.8592 76.1857C85.9182 76.618 85.9478 77.1175 85.9478 77.684Z" fill="white"/>
<path d="M20.0628 51.1997C20.212 51.2009 20.3454 51.292 20.4015 51.4304L22.9525 57.7824C23.0078 57.9215 22.9733 58.0812 22.8642 58.1842C22.7553 58.2881 22.594 58.3147 22.4579 58.2515L21.4623 57.7892L21.4526 59.9411C21.4474 61.1821 21.9252 62.3505 22.7994 63.2324C23.3247 63.7624 23.9616 64.13 24.6494 64.356L24.6928 54.689L23.6951 55.1419C23.5575 55.2042 23.3975 55.1764 23.2886 55.0718C23.1814 54.9673 23.148 54.808 23.2051 54.6688L25.8116 48.3389C25.8686 48.2008 26.0027 48.111 26.1522 48.1126C26.3012 48.1126 26.4348 48.2035 26.4907 48.3419L29.041 54.6946C29.097 54.8344 29.0619 54.9935 28.9537 55.0972C28.8439 55.2004 28.6839 55.2268 28.5466 55.1637L27.5516 54.7016L27.5089 64.3653C29.3713 63.7669 30.7354 62.0425 30.7452 59.9822L30.7546 57.8303L29.7571 58.2834C29.6192 58.3452 29.4593 58.3173 29.3505 58.2127C29.243 58.1083 29.2097 57.9492 29.2668 57.8099L31.8731 51.481C31.9305 51.3432 32.0643 51.2536 32.2139 51.2536C32.3632 51.2549 32.4963 51.3455 32.5523 51.484L35.1035 57.8364C35.1588 57.9754 35.1245 58.1352 35.0155 58.238C34.9064 58.3421 34.745 58.3682 34.6092 58.3053L33.6135 57.843L33.6039 59.9949C33.5878 63.6432 30.9557 66.678 27.4958 67.3321L27.4259 83.1382C27.4226 83.9279 26.78 84.5648 25.9904 84.5611C25.5955 84.5595 25.2388 84.3979 24.9813 84.1382C24.7238 83.8784 24.5654 83.5203 24.5673 83.1254L24.6371 67.3195C23.1418 67.0231 21.8046 66.2848 20.7714 65.2425C19.4184 63.8775 18.585 61.9975 18.5941 59.9283L18.6037 57.7764L17.6059 58.2293C17.468 58.2912 17.3083 58.2638 17.1996 58.1592C17.092 58.0549 17.0586 57.8952 17.1157 57.7559L19.7223 51.4274C19.7794 51.2893 19.9136 51.2 20.0628 51.1997Z" fill="white"/>
</svg>
