<svg width="38" height="142" viewBox="0 0 38 142" fill="none" xmlns="http://www.w3.org/2000/svg">
<g clip-path="url(#clip0)">
<path d="M18.9706 0C12.8072 0 7.79309 5.01411 7.79309 11.1775V26.8225C7.79309 32.9859 12.8072 38 18.9706 38C25.1339 38 30.148 32.9859 30.148 26.8225V11.1775C30.148 5.01411 25.1339 0 18.9706 0ZM27.8681 26.8225C27.8681 31.7285 23.8765 35.7201 18.9706 35.7201C14.0646 35.7201 10.073 31.7285 10.073 26.8225V11.1775C10.073 6.27148 14.0646 2.27991 18.9706 2.27991C23.8765 2.27991 27.8681 6.27148 27.8681 11.1775V26.8225Z" fill="white"/>
<path d="M18.9709 7.5593C18.3412 7.5593 17.8309 8.06955 17.8309 8.69925V13.9462C17.8309 14.5756 18.3412 15.0861 18.9709 15.0861C19.6003 15.0861 20.1108 14.5756 20.1108 13.9462V8.69925C20.1108 8.06955 19.6006 7.5593 18.9709 7.5593Z" fill="white"/>
</g>
<line x1="18.5001" y1="45" x2="18.5001" y2="142" stroke="url(#paint0_linear)"/>
<defs>
<linearGradient id="paint0_linear" x1="17.0001" y1="62.7656" x2="17.0001" y2="93.5" gradientUnits="userSpaceOnUse">
<stop stop-color="white"/>
<stop offset="1" stop-color="white" stop-opacity="0"/>
</linearGradient>
<clipPath id="clip0">
<rect width="38" height="38" fill="white" transform="translate(0.00012207)"/>
</clipPath>
</defs>
</svg>
