<svg width="34" height="34" viewBox="0 0 34 34" fill="none" xmlns="http://www.w3.org/2000/svg">
<path d="M33.0502 16.1321C33.9118 15.2926 34.2159 14.0606 33.844 12.9173C33.4728 11.7736 32.5027 10.9557 31.3122 10.7827L23.9619 9.71469C23.5888 9.66024 23.2664 9.42603 23.0995 9.08815L19.8124 2.42707C19.2801 1.34897 18.2024 0.67926 16.9999 0.67926C15.7975 0.67926 14.7198 1.34897 14.1875 2.42707C14.1875 2.42714 10.9003 9.08808 10.9003 9.08808C10.7335 9.42609 10.4111 9.66031 10.0386 9.71463L2.6878 10.7826C1.49727 10.9557 0.527142 11.7736 0.15613 12.9167C-0.215944 14.0606 0.0881304 15.2927 0.949485 16.1319L6.26849 21.3171C6.5383 21.58 6.66142 21.9587 6.59787 22.3298L5.34199 29.6513C5.13905 30.8367 5.61711 32.0119 6.58963 32.7183C7.56235 33.4251 8.82805 33.5167 9.89294 32.9573L16.4673 29.5008C16.8008 29.3255 17.199 29.3256 17.5322 29.5006L24.1071 32.9573C25.172 33.5168 26.4377 33.4251 27.4104 32.7183C28.3828 32.0119 28.861 30.8367 28.658 29.6513L27.4021 22.3301C27.3385 21.9587 27.4616 21.58 27.7316 21.3169L33.0502 16.1321ZM25.4384 22.6663L26.6945 29.9881C26.7696 30.4267 26.5996 30.845 26.2395 31.1066C26.0396 31.2518 25.8081 31.3285 25.5697 31.3285C25.4653 31.3285 25.2651 31.3153 25.0336 31.1937L18.4593 27.7372C18.0105 27.5015 17.5062 27.3772 17.0001 27.3772C16.4937 27.3772 15.989 27.5017 15.5408 27.7372L8.96585 31.1941C8.51422 31.4313 8.06225 31.3259 7.7607 31.1067C7.40052 30.8451 7.23045 30.4267 7.30562 29.9875L8.56143 22.6666C8.73568 21.6484 8.3982 20.6108 7.6589 19.8904L2.34016 14.7054C2.02102 14.3944 1.91291 13.9563 2.05063 13.5331C2.18829 13.109 2.53347 12.8183 2.97441 12.7542L10.3249 11.6862C11.3474 11.537 12.2299 10.8955 12.6868 9.96989L15.9739 3.30908C16.171 2.90985 16.5546 2.67151 17 2.67151C17.4454 2.67151 17.829 2.90985 18.0261 3.30908L21.3132 9.96983C21.7702 10.8956 22.6528 11.5371 23.6744 11.6861C25.3039 11.9227 28.4249 12.3759 31.0255 12.7542C31.4666 12.8183 31.8118 13.1092 31.9492 13.5324C32.0872 13.9565 31.9789 14.3945 31.66 14.7052L26.341 19.8905C25.6017 20.6108 25.2643 21.6486 25.4384 22.6663Z" fill="#4573DF"/>
</svg>
