<svg width="86" height="72" viewBox="0 0 86 72" fill="none" xmlns="http://www.w3.org/2000/svg">
<path d="M85.5629 67.3398L81.4652 61.1932L85.5629 55.0466C86.7099 53.3508 85.457 51.1025 83.4588 51.116H70.7115V43.5581C70.7115 42.1667 69.5835 41.0387 68.1922 41.0387H59.0281L57.6862 33.2143L68.7179 22.4612C69.4045 21.7919 69.6517 20.7908 69.3554 19.8786C69.059 18.9666 68.2706 18.3018 67.3217 18.164L52.0763 15.9486L45.2584 2.13412C44.834 1.2742 43.9581 0.729858 42.9993 0.729858C42.0404 0.729858 41.1646 1.2742 40.7401 2.13412L33.9222 15.9486L18.6769 18.164C17.728 18.3018 16.9394 18.9666 16.6432 19.8786C16.3469 20.7906 16.5941 21.7918 17.2807 22.4612L28.3124 33.2143L26.9705 41.0387H17.8064C16.4151 41.0387 15.2871 42.1667 15.2871 43.5581V51.116H2.53959C0.550519 51.0966 -0.710981 53.3519 0.435135 55.0466L4.53287 61.1932L0.435303 67.3398C-0.0337917 68.0333 0.000638753 68.7713 0.00315806 68.7545C0.00634918 70.1638 1.15767 71.2706 2.51994 71.2706C5.05772 71.2706 25.9671 71.2702 27.8833 71.2702C29.2746 71.2702 30.4026 70.1423 30.4026 68.7509V61.193H55.5956V68.7509C55.5956 70.1423 56.7236 71.2702 58.1149 71.2702C59.7228 71.2702 85.0928 71.2702 83.4783 71.2706C85.5072 71.2704 86.6805 68.9921 85.5629 67.3398ZM78.7685 56.1546L76.3411 59.7956C75.7769 60.642 75.7769 61.7444 76.3411 62.5906L78.7685 66.2316H68.1853C69.7704 64.1248 70.7115 61.5073 70.7115 58.6737V56.1544H78.7685V56.1546ZM33.2449 34.2605L40.4798 31.9098V39.5171L31.537 44.2186L33.2449 34.2605ZM45.5184 31.9098L52.7534 34.2605L54.4613 44.2184L45.5184 39.5169V31.9098ZM54.3103 29.4684L47.6041 27.2894L52.2974 21.0722L61.5452 22.416L54.3103 29.4684ZM42.9991 8.94162L47.7994 18.668L43.3214 24.5998L38.5277 18.0017L42.9991 8.94162ZM24.453 22.4162L34.4515 20.9634L38.9229 27.1177L31.6879 29.4684L24.453 22.4162ZM20.3254 46.0774H26.106L25.708 48.398C25.5459 49.343 25.9344 50.2984 26.7101 50.862C27.4861 51.4257 28.5146 51.5001 29.3633 51.0538L42.9991 43.8851L56.6349 51.0538C57.4871 51.5019 58.5155 51.4235 59.2881 50.862C60.0639 50.2984 60.4525 49.3432 60.2903 48.398L59.8922 46.0774H65.6729V56.1546H20.3254V46.0774ZM15.2868 58.6739C15.2868 61.5074 16.2278 64.125 17.813 66.2318H7.2297L9.65713 62.5907C10.2213 61.7444 10.2213 60.642 9.65713 59.7958L7.2297 56.1547H15.2868V58.6739ZM25.364 65.7985C23.2202 65.0381 21.519 63.3369 20.7587 61.1932H25.364V65.7985ZM65.2395 61.1932C64.4792 63.3369 62.778 65.0381 60.6342 65.7985V61.1932H65.2395Z" fill="#FFB525"/>
<path d="M26.8653 10.5219C27.6852 11.6506 29.2615 11.8951 30.3843 11.0792C31.5099 10.2614 31.7595 8.68588 30.9415 7.56025L26.7333 1.7682C25.9154 0.642408 24.3399 0.392997 23.2143 1.21093C22.0887 2.0287 21.8391 3.60427 22.6571 4.7299L26.8653 10.5219Z" fill="#FFB525"/>
<path d="M56.5943 11.1991C57.7092 12.0407 59.2879 11.8125 60.1228 10.7064L64.6065 4.76684C65.4448 3.65633 65.2243 2.07656 64.1138 1.2383C63.0032 0.400045 61.4235 0.620568 60.5852 1.73108L56.1015 7.67059C55.2633 8.7811 55.4838 10.3609 56.5943 11.1991Z" fill="#FFB525"/>
</svg>
