<svg width="72" height="72" viewBox="0 0 72 72" fill="none" xmlns="http://www.w3.org/2000/svg">
<path d="M70.8383 8.64153L65.8519 6.14825L63.3583 1.16153C62.5829 -0.389004 60.3657 -0.385348 59.5922 1.16153L57.1123 6.12082L51.8954 8.5625C50.2952 9.31147 50.2769 11.5885 51.8663 12.3623L57.1042 14.9123L59.5922 19.8878C60.3676 21.4383 62.5849 21.4346 63.3583 19.8878L65.8519 14.901L70.8383 12.4078C72.389 11.6325 72.3855 9.41511 70.8383 8.64153ZM63.341 11.4488C62.9335 11.6526 62.6032 11.9829 62.3995 12.3903L61.4752 14.2386L60.5509 12.3903C60.3437 11.976 60.0057 11.6416 59.5893 11.439L57.6745 10.5069L59.5603 9.62436C59.9898 9.42341 60.3388 9.08324 60.551 8.65911L61.4754 6.81087L62.3997 8.65911C62.6033 9.06664 62.9338 9.39683 63.3412 9.6006L65.1893 10.5248L63.341 11.4488Z" fill="#FFB525"/>
<path d="M19.8879 59.4517L14.9012 56.9584L12.4079 51.9717C11.6325 50.4212 9.41511 50.4248 8.64167 51.9717L6.14811 56.9584L1.16153 59.4517C-0.389004 60.2271 -0.385348 62.4445 1.16153 63.2179L6.14811 65.7112L8.64153 70.698C9.41694 72.2485 11.6343 72.2448 12.4078 70.698L14.901 65.7112L19.8878 63.2179C21.4384 62.4427 21.4348 60.2253 19.8879 59.4517ZM12.3903 62.259C11.9828 62.4628 11.6526 62.7931 11.4488 63.2005L10.5246 65.0487L9.60032 63.2005C9.39669 62.793 9.06622 62.4628 8.65883 62.259L6.81059 61.3348L8.65883 60.4106C9.06636 60.2069 9.39655 59.8765 9.60032 59.4692L10.5246 57.6209L11.4488 59.4692C11.6526 59.8767 11.9829 60.2069 12.3903 60.4106L14.2386 61.3348L12.3903 62.259Z" fill="#FFB525"/>
<path d="M61.4493 28.9966L42.863 10.4099C41.6698 9.21671 40.0837 8.55957 38.3972 8.55957H14.8758C13.1731 8.55957 11.6268 9.23795 10.4897 10.3372C10.463 10.3614 10.4354 10.3838 10.4095 10.4096C10.3838 10.4354 10.3614 10.4628 10.3372 10.4895C9.23797 11.6266 8.55945 13.1731 8.55945 14.8758V38.3641C8.55945 40.0542 9.26032 41.714 10.4689 42.8889L29.6371 61.5493C30.8234 62.7045 32.3886 63.341 34.0441 63.341C34.0464 63.341 34.0478 63.341 56.9933 63.306C60.4678 63.2998 63.2997 60.4633 63.2997 56.9898V33.4625C63.2998 31.7758 62.6425 30.1897 61.4493 28.9966ZM40.8798 14.3819L57.4778 30.9797L49.056 34.4682L37.3913 22.8035L40.8798 14.3819ZM46.4567 37.8238V46.4786L38.3158 46.4907L25.4028 33.9206V25.403H34.0358L46.4567 37.8238ZM36.9897 12.7705L33.5012 21.1921H24.1696L15.7479 12.7705H36.9897ZM12.7705 15.7479L21.1921 24.1695V33.4127L12.7705 36.9669V15.7479ZM31.5489 57.5336L14.4075 40.8464L22.8295 37.292L34.968 49.108L31.5489 57.5336ZM35.4463 59.1283L38.866 50.6584L47.71 50.6593L56.1192 59.0967C52.6489 59.102 39.7465 59.1217 35.4463 59.1283ZM59.0891 56.1116L50.6675 47.69V38.3584L59.0891 34.8699V56.1116Z" fill="#FFB525"/>
</svg>
