<svg width="71" height="68" viewBox="0 0 71 68" fill="none" xmlns="http://www.w3.org/2000/svg">
<path d="M64.7623 18.0592H59.1338L56.3304 10.5835C54.0225 4.42872 48.1397 0.316406 41.5149 0.316406H29.5139C22.9409 0.316406 17.0246 4.3802 14.6984 10.5835L11.895 18.0592H6.26651C2.82704 18.0592 0.0288086 20.8574 0.0288086 24.2969V61.4459C0.0288086 64.8854 2.82704 67.6836 6.26651 67.6836H64.7623C68.2018 67.6836 71 64.8854 71 61.4459V24.2969C71 20.8574 68.2018 18.0592 64.7623 18.0592ZM18.5921 12.0437C20.2897 7.51652 24.6788 4.47487 29.5139 4.47487H41.5149C46.35 4.47487 50.7391 7.51652 52.4367 12.0437L54.6926 18.0592H16.3362L18.5921 12.0437ZM66.8415 61.4459C66.8415 62.5924 65.9088 63.5251 64.7623 63.5251H6.26651C5.12002 63.5251 4.18728 62.5924 4.18728 61.4459V24.2969C4.18728 23.1504 5.12002 22.2177 6.26651 22.2177H64.7623C65.9088 22.2177 66.8415 23.1504 66.8415 24.2969V61.4459Z" fill="#FFB525"/>
<path d="M11.3953 31.0891H18.5922L11.578 47.0453C10.9715 48.4248 11.9913 49.9619 13.4803 49.9619C14.28 49.9619 15.0425 49.4978 15.3848 48.7188L23.6809 29.8465C24.2842 28.4744 23.2774 26.9306 21.7776 26.9306H11.3953C10.247 26.9306 9.31604 27.8615 9.31604 29.0098C9.31604 30.1581 10.247 31.0891 11.3953 31.0891Z" fill="#FFB525"/>
<path d="M30.247 31.0891H37.4439L30.4297 47.0453C29.8232 48.4248 30.843 49.9619 32.332 49.9619C33.1317 49.9619 33.8942 49.4978 34.2365 48.7188L42.5326 29.8465C43.1359 28.4744 42.1291 26.9306 40.6293 26.9306H30.247C29.0987 26.9306 28.1677 27.8615 28.1677 29.0098C28.1677 30.1581 29.0987 31.0891 30.247 31.0891Z" fill="#FFB525"/>
<path d="M49.0988 31.0891H56.2957L49.2815 47.0453C48.675 48.4248 49.6948 49.9619 51.1838 49.9619C51.9835 49.9619 52.746 49.4978 53.0883 48.7188L61.3844 29.8465C61.9877 28.4744 60.9809 26.9306 59.4811 26.9306H49.0988C47.9505 26.9306 47.0195 27.8615 47.0195 29.0098C47.0195 30.1581 47.9505 31.0891 49.0988 31.0891Z" fill="#FFB525"/>
<path d="M37.5535 10.8609C37.2948 9.62638 36.0717 8.93136 34.9101 9.2779C33.7144 9.66755 33.2198 10.8437 33.5253 11.8714C33.9136 13.0589 35.0834 13.564 36.1188 13.2562C37.2054 12.9009 37.7444 11.8804 37.5535 10.8609Z" fill="#FFB525"/>
<path d="M28.6807 10.8609C28.4575 9.68167 27.228 8.91596 26.0399 9.27789C24.8662 9.65243 24.3427 10.825 24.6537 11.8714C24.9835 12.9501 26.1193 13.5915 27.2472 13.2562C28.3646 12.8909 28.879 11.8166 28.6807 10.8609Z" fill="#FFB525"/>
<path d="M46.4248 10.8609C46.1641 9.61667 44.933 8.93427 43.7814 9.2779C42.6085 9.6602 42.0855 10.8247 42.3967 11.8714C42.7871 13.0657 43.9591 13.5628 44.9901 13.2562C46.0949 12.8949 46.6122 11.862 46.4248 10.8609Z" fill="#FFB525"/>
<path d="M59.9107 54.6537H11.1181C9.96976 54.6537 9.03882 55.5846 9.03882 56.7329C9.03882 57.8812 9.96976 58.8122 11.1181 58.8122H59.9107C61.059 58.8122 61.99 57.8812 61.99 56.7329C61.99 55.5846 61.059 54.6537 59.9107 54.6537Z" fill="#FFB525"/>
</svg>
