<svg width="62" height="62" viewBox="0 0 62 62" fill="none" xmlns="http://www.w3.org/2000/svg">
<path d="M16.3477 29.3047C7.33356 29.3047 0 36.6382 0 45.6523C0 54.6664 7.33356 62 16.3477 62C25.3618 62 32.6953 54.6664 32.6953 45.6523C32.6953 36.6382 25.3618 29.3047 16.3477 29.3047ZM16.3477 58.3672C9.33669 58.3672 3.63281 52.6633 3.63281 45.6523C3.63281 38.6414 9.33669 32.9375 16.3477 32.9375C23.3586 32.9375 29.0625 38.6414 29.0625 45.6523C29.0625 52.6633 23.3586 58.3672 16.3477 58.3672Z" fill="#FFB525"/>
<path d="M11.5039 25.4297C12.507 25.4297 13.3203 24.6164 13.3203 23.6133V18.1641H19.2281L18.6961 18.6961C17.9868 19.4055 17.9868 20.5555 18.6961 21.2649C19.0507 21.6196 19.5156 21.7969 19.9805 21.7969C20.4453 21.7969 20.9102 21.6196 21.2648 21.2648L24.8976 17.632C25.607 16.9226 25.607 15.7726 24.8976 15.0632L21.2648 11.4304C20.5555 10.721 19.4054 10.721 18.696 11.4304C17.9867 12.1398 17.9867 13.2898 18.696 13.9992L19.228 14.5312H11.5039C10.5008 14.5312 9.6875 15.3445 9.6875 16.3477V23.6133C9.6875 24.6164 10.5008 25.4297 11.5039 25.4297Z" fill="#FFB525"/>
<path d="M50.496 36.5703C49.4929 36.5703 48.6796 37.3836 48.6796 38.3867V43.8359H42.7718L43.3039 43.3039C44.0133 42.5945 44.0133 41.4445 43.3039 40.7351C42.5947 40.0257 41.4445 40.0257 40.7351 40.7351L37.1023 44.3679C36.393 45.0773 36.393 46.2273 37.1023 46.9367L40.7351 50.5695C41.0897 50.9243 41.5546 51.1016 42.0195 51.1016C42.4843 51.1016 42.9492 50.9243 43.3038 50.5695C44.0132 49.8601 44.0132 48.7101 43.3038 48.0007L42.7718 47.4688H50.496C51.4992 47.4688 52.3124 46.6555 52.3124 45.6523V38.3867C52.3124 37.3836 51.4992 36.5703 50.496 36.5703Z" fill="#FFB525"/>
<path d="M45.6523 0C36.6382 0 29.3047 7.33356 29.3047 16.3477C29.3047 25.3618 36.6382 32.6953 45.6523 32.6953C54.6664 32.6953 62 25.3618 62 16.3477C62 7.33356 54.6664 0 45.6523 0ZM45.6523 21.7969C42.6476 21.7969 40.2031 19.3524 40.2031 16.3477C40.2031 13.343 42.6476 10.8984 45.6523 10.8984C48.657 10.8984 51.1016 13.343 51.1016 16.3477C51.1016 19.3524 48.657 21.7969 45.6523 21.7969ZM50.6571 8.77421C49.7043 8.14234 48.6266 7.68437 47.4688 7.44848V3.76311C49.6197 4.07214 51.5988 4.92077 53.263 6.16827L50.6571 8.77421ZM43.8359 7.44836C42.678 7.68437 41.6004 8.14234 40.6475 8.77409L38.0416 6.16815C39.7059 4.92077 41.6849 4.07214 43.8359 3.76311V7.44836ZM38.0788 11.343C37.447 12.2959 36.9889 13.3735 36.753 14.5312H33.0678C33.3768 12.3803 34.2255 10.4012 35.473 8.73691L38.0788 11.343ZM36.753 18.1641C36.9891 19.3218 37.447 20.3995 38.0788 21.3523L35.4728 23.9583C34.2255 22.2941 33.3767 20.3151 33.0677 18.1639H36.753V18.1641ZM40.6475 23.9211C41.6004 24.553 42.678 25.0109 43.8359 25.2468V28.9321C41.6849 28.6231 39.7059 27.7744 38.0417 26.5269L40.6475 23.9211ZM47.4688 25.247C48.6266 25.0109 49.7043 24.553 50.6571 23.9212L53.2631 26.5272C51.5989 27.7745 49.6199 28.6232 47.4689 28.9323V25.247H47.4688ZM53.2258 21.3523C53.8577 20.3995 54.3156 19.3218 54.5515 18.1641H58.2368C57.9277 20.3151 57.0791 22.2941 55.8316 23.9584L53.2258 21.3523ZM54.5516 14.5312C54.3158 13.3735 53.8577 12.2959 53.2259 11.343L55.8318 8.73704C57.0792 10.4012 57.928 12.3803 58.237 14.5314H54.5516V14.5312Z" fill="#FFB525"/>
<path d="M18.1156 44.4347C17.9048 44.3602 17.6901 44.2828 17.475 44.203V40.2902C17.8452 40.4267 18.0377 40.6122 18.0651 40.6399C18.5055 41.1365 19.2649 41.1864 19.7666 40.7494C20.2708 40.31 20.3234 39.5451 19.884 39.0409C19.4816 38.579 18.6506 38.0003 17.475 37.7967V37.1758C17.475 36.507 16.9329 35.9648 16.2641 35.9648C15.5953 35.9648 15.0531 36.507 15.0531 37.1758V37.9293C14.9784 37.9491 14.9033 37.9702 14.8273 37.993C13.392 38.4255 12.32 39.6507 12.0298 41.1908C11.7635 42.6039 12.2223 43.9714 13.2272 44.7596C13.7014 45.1316 14.2795 45.4726 15.0531 45.8272V50.9418C14.506 50.8648 14.0959 50.6787 13.4419 50.2509C12.8823 49.8849 12.1317 50.0415 11.7656 50.6014C11.3995 51.1611 11.5563 51.9116 12.1161 52.2777C13.2651 53.0294 14.0754 53.2934 15.0531 53.3779V54.1289C15.0531 54.7977 15.5953 55.3398 16.2641 55.3398C16.9329 55.3398 17.475 54.7977 17.475 54.1289V53.2616C19.4871 52.7512 20.7767 51.0325 21.0617 49.338C21.4282 47.1577 20.2443 45.1872 18.1156 44.4347ZM14.7219 42.854C14.4356 42.6295 14.3131 42.1526 14.4098 41.6393C14.4799 41.2673 14.6836 40.8383 15.0531 40.5548V43.0872C14.934 43.0108 14.8228 42.9331 14.7219 42.854ZM18.6733 48.9364C18.563 49.5927 18.1563 50.2826 17.4751 50.6728V46.7831C18.7855 47.3351 18.7529 48.463 18.6733 48.9364Z" fill="#FFB525"/>
</svg>
